<?xml version="1.0" encoding="UTF-8" standalone="no"?>
<!-- Created with Inkscape (http://www.inkscape.org/) -->

<svg
   xmlns:dc="http://purl.org/dc/elements/1.1/"
   xmlns:cc="http://creativecommons.org/ns#"
   xmlns:rdf="http://www.w3.org/1999/02/22-rdf-syntax-ns#"
   xmlns:svg="http://www.w3.org/2000/svg"
   xmlns="http://www.w3.org/2000/svg"
   xmlns:sodipodi="http://sodipodi.sourceforge.net/DTD/sodipodi-0.dtd"
   xmlns:inkscape="http://www.inkscape.org/namespaces/inkscape"
   version="1.1"
   id="svg844"
   width="297mm"
   height="210mm"
   viewBox="0 0 1122.5197 793.70079"
   sodipodi:docname="title2.svg"
   inkscape:version="0.92.3 (2405546, 2018-03-11)">
  <metadata
     id="metadata850">
    <rdf:RDF>
      <cc:Work
         rdf:about="">
        <dc:format>image/svg+xml</dc:format>
        <dc:type
           rdf:resource="http://purl.org/dc/dcmitype/StillImage" />
        <dc:title></dc:title>
      </cc:Work>
    </rdf:RDF>
  </metadata>
  <defs
     id="defs848" />
  <sodipodi:namedview
     pagecolor="#ffffff"
     bordercolor="#666666"
     borderopacity="1"
     objecttolerance="10"
     gridtolerance="10"
     guidetolerance="10"
     inkscape:pageopacity="0"
     inkscape:pageshadow="2"
     inkscape:window-width="1280"
     inkscape:window-height="961"
     id="namedview846"
     showgrid="false"
     units="mm"
     inkscape:zoom="0.70377385"
     inkscape:cx="563.54413"
     inkscape:cy="396.85039"
     inkscape:window-x="-8"
     inkscape:window-y="-8"
     inkscape:window-maximized="1"
     inkscape:current-layer="g1400"
     showguides="true"
     inkscape:guide-bbox="true"
     inkscape:measure-start="0,0"
     inkscape:measure-end="0,0">
    <sodipodi:guide
       position="271.39401,-424.85238"
       orientation="0,1"
       id="guide1502"
       inkscape:locked="false" />
  </sodipodi:namedview>
  <g
     id="g1400"
     transform="translate(2.8418189,-24.155487)">
    <path
       inkscape:connector-curvature="0"
       id="path1418"
       d="m 562.4489,497.5731 c -6.2758,-0.78849 -11.84807,-2.43463 -17.05335,-5.03804 -3.17111,-1.58592 -4.17117,-2.32918 -3.13397,-2.32918 0.31186,0 1.93375,0.21714 3.60422,0.48254 4.51718,0.71772 12.83164,0.6519 17.16571,-0.13586 12.89837,-2.34439 23.24062,-9.59346 31.25337,-21.90617 6.13972,-9.4345 9.48578,-20.40425 10.01646,-32.83794 0.10182,-2.38592 0.27167,-4.48 0.37745,-4.6535 0.10577,-0.17351 2.59602,-0.80323 5.53388,-1.39938 l 5.34156,-1.08396 0.72087,0.84963 0.72084,0.84964 -0.15839,8.43183 c -0.21169,11.26923 -0.90204,16.22209 -3.29091,23.61031 -5.21175,16.11855 -16.54227,28.61208 -30.12351,33.21555 -4.34105,1.47146 -7.63308,1.98935 -13.4002,2.10802 -2.96407,0.0612 -6.37239,-0.0125 -7.57403,-0.16349 z m -15.58505,-8.69499 c -11.4695,-1.65471 -20.25197,-5.93612 -28.2452,-13.76923 -5.72922,-5.6145 -9.38329,-10.66419 -12.69052,-17.53755 -3.07482,-6.39035 -4.88985,-12.39676 -6.02397,-19.93513 -0.64317,-4.27495 -0.72322,-17.80998 -0.13716,-23.18384 2.45032,-22.46804 10.66954,-42.02751 22.77332,-54.1941 8.15172,-8.19408 17.66795,-12.45147 28.86778,-12.91498 10.88926,-0.45063 19.30704,2.71536 26.48625,9.9616 7.75395,7.82634 12.58481,19.53038 13.71381,33.22523 0.39068,4.73882 0.18912,13.17123 -0.46586,19.49221 -0.63229,6.10152 -0.74695,6.69136 -1.43694,7.39085 -0.60743,0.61583 -0.91763,0.64117 -10.08175,0.82226 -14.97766,0.29593 -31.90098,1.61732 -44.63059,3.48468 l -2.25765,0.33122 0.005,1.8119 c 0.0175,5.89682 2.09524,13.85565 4.67301,17.89911 2.96792,4.65541 6.66173,6.49863 11.77292,5.87483 3.7139,-0.45332 6.17896,-2.27133 7.77857,-5.73687 1.24304,-2.69305 1.66631,-5.6172 1.85695,-12.82889 0.0924,-3.49233 0.22195,-6.62593 0.2881,-6.96353 0.29863,-1.52424 2.48554,-1.43559 9.89309,0.40125 2.8411,0.7045 3.74933,0.79283 8.01099,0.77888 5.16444,-0.0171 5.6608,-0.0861 17.01498,-2.37441 7.27376,-1.46593 7.76018,-1.45981 8.36366,0.1063 0.45998,1.1937 0.13074,16.49835 -0.44305,20.59559 -1.35613,9.68377 -4.35405,18.27469 -8.79095,25.19182 -7.76454,12.10478 -17.10846,18.97873 -29.39919,21.62781 -3.84417,0.82858 -12.62716,1.05882 -16.89592,0.44299 z m -0.62654,-95.81114 c 5.26311,-0.63156 9.67271,-1.26135 9.79914,-1.39958 0.40658,-0.44443 -0.52826,-2.89052 -1.58144,-4.13791 -1.25296,-1.48411 -3.26527,-2.8195 -6.01115,-3.9891 -1.99693,-0.85062 -2.15645,-0.87267 -3.98508,-0.54981 -3.37161,0.59529 -5.41071,2.10842 -6.70567,4.9761 -0.89714,1.98671 -1.68124,6.28399 -1.1407,6.25186 0.0307,0 4.36183,-0.51999 9.6249,-1.15156 z m -7.51685,-1.48139 c -0.25818,-0.4235 0.96472,-3.47036 1.79388,-4.46934 0.99794,-1.20238 2.75482,-2.0682 4.56602,-2.2502 1.31991,-0.13263 1.76125,-0.0125 3.82266,1.04197 2.55763,1.30802 4.70346,3.2561 4.41782,4.01062 -0.0965,0.25512 -0.40909,0.46451 -0.69448,0.46535 -0.28542,6.7e-4 -3.20627,0.33076 -6.49078,0.73327 -6.71446,0.82277 -7.18106,0.85226 -7.41512,0.46833 z m 6.39554,54.04283 c -4.12959,-1.0238 -7.37073,-5.57337 -9.20243,-12.91749 -0.47902,-1.92056 -0.95006,-4.70641 -1.04678,-6.19091 l -0.17589,-2.69911 0.84293,-0.17416 c 2.3111,-0.47754 18.35279,-2.25408 20.35397,-2.25408 h 1.02621 v 3.82197 c 0,2.10202 -0.11931,3.89667 -0.26517,3.98803 -0.14583,0.0915 -2.2638,0.43653 -4.70652,0.76696 -2.44278,0.33043 -4.55199,0.67001 -4.68711,0.75472 -0.65706,0.41166 -0.0406,6.90608 1.08868,11.46999 0.39929,1.61363 0.65978,3.10879 0.57888,3.32251 -0.16062,0.42435 -2.29304,0.48682 -3.80677,0.11157 z m 59.44239,-23.79277 c -0.40052,-1.70296 -0.82569,-2.52784 -1.67768,-3.25464 -1.11316,-0.94962 -2.12664,-0.94212 -7.25532,0.0539 -2.22667,0.43231 -4.13117,0.70233 -4.23216,0.59991 -0.101,-0.10245 0.038,-0.52922 0.30897,-0.9485 1.55957,-2.41312 2.52867,-23.13935 1.46625,-31.35878 -1.20125,-9.29337 -4.22416,-17.89227 -8.63398,-24.55974 -0.79042,-1.19506 -1.36803,-2.24295 -1.28359,-2.32858 0.26527,-0.26888 1.84102,0.5317 3.96204,2.01304 2.93613,2.05062 4.98817,3.918 7.10145,6.46243 6.55561,7.89294 10.55242,18.56068 11.56808,30.87564 0.48249,5.85041 -0.0448,19.24637 -0.88339,22.44551 l -0.2323,0.88604 z m -31.14174,-0.45747 c -4.2057,-0.71541 -2.49189,-1.09804 5.4301,-1.21237 3.61578,-0.052 6.65941,-0.008 6.76362,0.0972 0.25752,0.26104 -2.33021,0.77314 -5.68295,1.12464 -3.16584,0.33187 -4.51569,0.32989 -6.51077,-0.009 z"
       style="fill:#aed2ee;stroke-width:0.29331541"
       sodipodi:nodetypes="csscscccccccsssscccsssscscccsccccscscsccccccccscsccccscccccccccccccscscccccccccccsccccsccccccccc" />
    <path
       inkscape:connector-curvature="0"
       id="path1420"
       d="m 562.4489,497.5731 c -6.2758,-0.78849 -11.84807,-2.43463 -17.05335,-5.03804 -3.17111,-1.58592 -4.17117,-2.32918 -3.13397,-2.32918 0.31186,0 1.93375,0.21714 3.60422,0.48254 4.51718,0.71772 12.83164,0.6519 17.16571,-0.13586 12.89837,-2.34439 23.24062,-9.59346 31.25337,-21.90617 6.13972,-9.4345 9.48578,-20.40425 10.01646,-32.83794 0.10182,-2.38592 0.27167,-4.48 0.37745,-4.6535 0.10577,-0.17351 2.59602,-0.80323 5.53388,-1.39938 l 5.34156,-1.08396 0.72087,0.84963 0.72084,0.84964 -0.15839,8.43183 c -0.21169,11.26923 -0.90204,16.22209 -3.29091,23.61031 -5.21175,16.11855 -16.54227,28.61208 -30.12351,33.21555 -4.34105,1.47146 -7.63308,1.98935 -13.4002,2.10802 -2.96407,0.0612 -6.37239,-0.0125 -7.57403,-0.16349 z m -15.58505,-8.69506 c -11.4695,-1.6547 -20.25197,-5.93605 -28.2452,-13.76922 -5.72922,-5.61451 -9.38329,-10.66419 -12.69052,-17.53756 -3.07482,-6.39034 -4.88985,-12.39676 -6.02397,-19.93512 -0.64317,-4.27496 -0.72322,-17.80998 -0.13716,-23.18385 2.45032,-22.46803 10.66954,-42.02751 22.77332,-54.19409 8.15172,-8.19408 17.66795,-12.45147 28.86778,-12.91492 10.88926,-0.45069 19.30704,2.71529 26.48625,9.96153 7.75395,7.82641 12.58481,19.53039 13.71381,33.2253 0.39068,4.73874 0.18912,13.17117 -0.46586,19.49215 -0.63229,6.10152 -0.74695,6.69135 -1.43694,7.39091 -0.60743,0.61577 -0.91763,0.64111 -10.08175,0.82219 -14.97766,0.29594 -31.90098,1.61731 -44.63059,3.48475 l -2.25765,0.33116 0.005,1.81189 c 0.0175,5.89682 2.09524,13.85565 4.67301,17.89912 2.96792,4.65541 6.66173,6.49869 11.77292,5.87483 3.7139,-0.45332 6.17896,-2.27133 7.77857,-5.73687 1.24304,-2.69306 1.66631,-5.61714 1.85695,-12.82883 0.0924,-3.4924 0.22195,-6.62599 0.2881,-6.9636 0.29863,-1.52424 2.48554,-1.43558 9.89309,0.40126 2.8411,0.70449 3.74933,0.79282 8.01099,0.77894 5.16444,-0.0171 5.6608,-0.0861 17.01498,-2.37447 7.27376,-1.46593 7.76018,-1.45975 8.36366,0.1063 0.45998,1.19368 0.13074,16.49841 -0.44305,20.59558 -1.35613,9.68377 -4.35405,18.2747 -8.79095,25.19183 -7.76454,12.10477 -17.10846,18.97873 -29.39919,21.62781 -3.84417,0.82857 -12.62716,1.05888 -16.89592,0.44298 z m -0.62654,-95.81114 c 5.26311,-0.63157 9.67271,-1.26135 9.79914,-1.39951 0.40658,-0.44449 -0.52826,-2.89059 -1.58144,-4.13798 -1.25296,-1.48409 -3.26527,-2.81943 -6.01115,-3.98909 -1.99693,-0.85063 -2.15645,-0.87261 -3.98508,-0.54981 -3.37161,0.59529 -5.41071,2.10841 -6.70567,4.97608 -0.89714,1.98672 -1.68124,6.28399 -1.1407,6.25188 0.0307,0 4.36183,-0.52 9.6249,-1.15157 z m -7.51685,-1.48139 c -0.25818,-0.4235 0.96472,-3.47035 1.79388,-4.46933 0.99794,-1.20238 2.75482,-2.0682 4.56602,-2.2502 1.31991,-0.13263 1.76125,-0.0125 3.82266,1.04197 2.55763,1.30808 4.70346,3.25609 4.41782,4.01061 -0.0965,0.25513 -0.40909,0.4645 -0.69448,0.46536 -0.28542,6.6e-4 -3.20627,0.33076 -6.49078,0.73326 -6.71446,0.82278 -7.18106,0.85227 -7.41512,0.46833 z m 6.39554,54.0429 c -4.12959,-1.0238 -7.37073,-5.57337 -9.20243,-12.91755 -0.47902,-1.9205 -0.95006,-4.70643 -1.04678,-6.19092 l -0.17589,-2.69904 0.84293,-0.17416 c 2.3111,-0.47761 18.35279,-2.25408 20.35397,-2.25408 h 1.02621 v 3.8219 c 0,2.10209 -0.11931,3.89674 -0.26517,3.9881 -0.14583,0.0914 -2.2638,0.43647 -4.70652,0.7669 -2.44278,0.33043 -4.55199,0.67007 -4.68711,0.75472 -0.65706,0.41172 -0.0406,6.90614 1.08868,11.47005 0.39929,1.61363 0.65978,3.10871 0.57888,3.32251 -0.16062,0.42435 -2.29304,0.48682 -3.80677,0.11157 z m 59.44239,-23.79277 c -0.40052,-1.70302 -0.82569,-2.52784 -1.67768,-3.25464 -1.11316,-0.94962 -2.12664,-0.94212 -7.25532,0.0539 -2.22667,0.43231 -4.13117,0.70225 -4.23216,0.59991 -0.101,-0.10245 0.038,-0.52928 0.30897,-0.9485 1.55957,-2.41312 2.52867,-23.13935 1.46625,-31.35878 -1.20125,-9.29345 -4.22416,-17.89227 -8.63398,-24.55974 -0.79042,-1.19506 -1.36803,-2.24295 -1.28359,-2.32858 0.26527,-0.26896 1.84102,0.5317 3.96204,2.01304 2.93613,2.05062 4.98817,3.918 7.10145,6.46236 6.55561,7.89301 10.55242,18.56069 11.56808,30.87571 0.48249,5.85041 -0.0448,19.24637 -0.88339,22.44551 l -0.2323,0.88597 z m -31.14174,-0.45747 c -4.2057,-0.71541 -2.49189,-1.09811 5.4301,-1.21237 3.61578,-0.052 6.65941,-0.008 6.76362,0.0971 0.25752,0.26113 -2.33021,0.77322 -5.68295,1.12471 -3.16584,0.33188 -4.51569,0.3299 -6.51077,-0.009 z"
       style="fill:#dadda7;stroke-width:0.29331541"
       sodipodi:nodetypes="csscscccccccsssscccsssscscccsccccscscsccccccccscsccccscccccccccccccscscccccccccccsccccsccccccccc" />
    <path
       inkscape:connector-curvature="0"
       id="path1422"
       d="m 547.73778,488.52761 c -11.82337,-1.53023 -21.25468,-6.14129 -29.46187,-14.40421 -9.65255,-9.71808 -15.06438,-20.45309 -17.64984,-35.01041 -0.58981,-3.32106 -0.65602,-4.64119 -0.65932,-13.1426 -0.003,-9.61702 0.16584,-12.0537 1.33589,-19.19686 2.68371,-16.38448 9.57172,-32.31807 18.59539,-43.0155 7.23047,-8.57157 16.11375,-13.78173 26.37453,-15.46902 3.42553,-0.56331 10.43774,-0.56041 13.639,0.006 7.04446,1.24542 12.81795,4.30661 17.83105,9.45418 7.29455,7.49024 11.94215,18.49552 13.27961,31.44559 0.68414,6.62415 -0.33862,26.51973 -1.4319,27.85526 -0.26562,0.3245 -2.12446,0.45345 -8.85935,0.61452 -15.67093,0.37485 -29.02009,1.37397 -43.15876,3.23009 -3.82649,0.50236 -4.99065,0.75703 -5.23039,1.14426 -0.21852,0.35286 -0.20179,1.58743 0.0574,4.23645 1.03219,10.54947 4.78781,18.35493 10.09499,20.98083 1.61021,0.79672 2.00071,0.86485 4.95878,0.86485 3.03809,0 3.31506,-0.052 5.1458,-0.96594 3.00355,-1.49937 4.72795,-3.84995 5.80998,-7.9196 0.52809,-1.98619 0.64146,-3.40176 0.75475,-9.4253 0.16115,-8.56525 0.16966,-8.59197 2.64636,-8.29682 0.89664,0.10682 3.73401,0.68396 6.30534,1.28254 4.17888,0.97286 5.09257,1.08719 8.60779,1.07718 4.44064,-0.0125 5.59195,-0.17114 16.15559,-2.22452 4.15909,-0.80844 7.86033,-1.39398 8.22504,-1.30117 0.39028,0.0994 0.73878,0.47444 0.84705,0.91183 0.1012,0.40875 0.11736,4.6928 0.036,9.52013 -0.15241,9.03806 -0.44426,12.02626 -1.72249,17.63695 -3.60576,15.82756 -14.14362,30.15133 -26.62528,36.19092 -6.16751,2.98432 -11.78433,4.14475 -19.73974,4.07814 -2.90808,-0.0244 -5.6807,-0.0952 -6.16136,-0.15732 z m -0.87393,-95.05703 c 4.96683,-0.57646 9.19445,-1.10423 9.39472,-1.17281 1.19486,-0.40942 -0.36625,-4.17893 -2.52276,-6.09146 -2.0257,-1.79648 -5.58221,-3.56638 -7.50567,-3.73514 -5.40268,-0.47406 -9.5272,3.60239 -10.19995,10.081 -0.19372,1.86566 0.0242,2.25231 1.16646,2.06879 0.35016,-0.056 4.7004,-0.57396 9.6672,-1.15038 z"
       style="fill:#cca2ca;stroke-width:0.29331541"
       sodipodi:nodetypes="cscccccccccsccccssscsccsccscccccccccccc" />
    <path
       inkscape:connector-curvature="0"
       id="path1424"
       d="m 547.73778,488.52761 c -11.82337,-1.53023 -21.25468,-6.14129 -29.46187,-14.40421 -9.65255,-9.71808 -15.06438,-20.45309 -17.64984,-35.01041 -0.58981,-3.32106 -0.65602,-4.64119 -0.65932,-13.1426 -0.003,-9.61702 0.16584,-12.0537 1.33589,-19.19686 2.68371,-16.38448 9.57172,-32.31807 18.59539,-43.0155 7.23047,-8.57157 16.11375,-13.78173 26.37453,-15.46902 3.42553,-0.56331 10.43774,-0.56041 13.639,0.006 7.04446,1.24542 12.81795,4.30661 17.83105,9.45418 7.29455,7.49024 11.94215,18.49552 13.27961,31.44559 0.68414,6.62415 -0.33862,26.51973 -1.4319,27.85526 -0.26562,0.3245 -2.12446,0.45345 -8.85935,0.61452 -15.67093,0.37485 -29.02009,1.37397 -43.15876,3.23009 -3.82649,0.50236 -4.99065,0.75703 -5.23039,1.14426 -0.21852,0.35286 -0.20179,1.58743 0.0574,4.23645 1.03219,10.54947 4.78781,18.35493 10.09499,20.98083 1.61021,0.79672 2.00071,0.86485 4.95878,0.86485 3.03809,0 3.31506,-0.052 5.1458,-0.96594 3.00355,-1.49937 4.72795,-3.84995 5.80998,-7.9196 0.52809,-1.98619 0.64146,-3.40176 0.75475,-9.4253 0.16115,-8.56525 0.16966,-8.59197 2.64636,-8.29682 0.89664,0.10682 3.73401,0.68396 6.30534,1.28254 4.17888,0.97286 5.09257,1.08719 8.60779,1.07718 4.44064,-0.0125 5.59195,-0.17114 16.15559,-2.22452 4.15909,-0.80844 7.86033,-1.39398 8.22504,-1.30117 0.39028,0.0994 0.73878,0.47444 0.84705,0.91183 0.1012,0.40875 0.11736,4.6928 0.036,9.52013 -0.15241,9.03806 -0.44426,12.02626 -1.72249,17.63695 -3.60576,15.82756 -14.14362,30.15133 -26.62528,36.19092 -6.16751,2.98432 -11.78433,4.14475 -19.73974,4.07814 -2.90808,-0.0244 -5.6807,-0.0952 -6.16136,-0.15732 z m -0.87393,-95.05703 c 4.96683,-0.57646 9.19445,-1.10423 9.39472,-1.17281 1.19486,-0.40942 -0.36625,-4.17893 -2.52276,-6.09146 -2.0257,-1.79648 -5.58221,-3.56638 -7.50567,-3.73514 -5.40268,-0.47406 -9.5272,3.60239 -10.19995,10.081 -0.19372,1.86566 0.0242,2.25231 1.16646,2.06879 0.35016,-0.056 4.7004,-0.57396 9.6672,-1.15038 z"
       style="fill:#f07aa8;stroke-width:0.29331541"
       sodipodi:nodetypes="cscccccccccsccccssscsccsccscccccccccccc" />
    <path
       inkscape:connector-curvature="0"
       id="path1426"
       d="m 547.73778,488.52761 c -11.82337,-1.53023 -21.25468,-6.14129 -29.46187,-14.40421 -9.65255,-9.71808 -15.06438,-20.45309 -17.64984,-35.01041 -0.58981,-3.32106 -0.65602,-4.64119 -0.65932,-13.1426 -0.003,-9.61702 0.16584,-12.0537 1.33589,-19.19686 2.68371,-16.38448 9.57172,-32.31807 18.59539,-43.0155 7.23047,-8.57157 16.11375,-13.78173 26.37453,-15.46902 3.42553,-0.56331 10.43774,-0.56041 13.639,0.006 7.04446,1.24542 12.81795,4.30661 17.83105,9.45418 7.29455,7.49024 11.94215,18.49552 13.27961,31.44559 0.68414,6.62415 -0.33862,26.51973 -1.4319,27.85526 -0.26562,0.3245 -2.12446,0.45345 -8.85935,0.61452 -15.67093,0.37485 -29.02009,1.37397 -43.15876,3.23009 -3.82649,0.50236 -4.99065,0.75703 -5.23039,1.14426 -0.21852,0.35286 -0.20179,1.58743 0.0574,4.23645 1.03219,10.54947 4.78781,18.35493 10.09499,20.98083 1.61021,0.79672 2.00071,0.86485 4.95878,0.86485 3.03809,0 3.31506,-0.052 5.1458,-0.96594 3.00355,-1.49937 4.72795,-3.84995 5.80998,-7.9196 0.52809,-1.98619 0.64146,-3.40176 0.75475,-9.4253 0.16115,-8.56525 0.16966,-8.59197 2.64636,-8.29682 0.89664,0.10682 3.73401,0.68396 6.30534,1.28254 4.17888,0.97286 5.09257,1.08719 8.60779,1.07718 4.44064,-0.0125 5.59195,-0.17114 16.15559,-2.22452 4.15909,-0.80844 7.86033,-1.39398 8.22504,-1.30117 0.39028,0.0994 0.73878,0.47444 0.84705,0.91183 0.1012,0.40875 0.11736,4.6928 0.036,9.52013 -0.15241,9.03806 -0.44426,12.02626 -1.72249,17.63695 -3.60576,15.82756 -14.14362,30.15133 -26.62528,36.19092 -6.16751,2.98432 -11.78433,4.14475 -19.73974,4.07814 -2.90808,-0.0244 -5.6807,-0.0952 -6.16136,-0.15732 z m -0.87393,-95.05703 c 4.96683,-0.57646 9.19445,-1.10423 9.39472,-1.17281 1.19486,-0.40942 -0.36625,-4.17893 -2.52276,-6.09146 -2.0257,-1.79648 -5.58221,-3.56638 -7.50567,-3.73514 -5.40268,-0.47406 -9.5272,3.60239 -10.19995,10.081 -0.19372,1.86566 0.0242,2.25231 1.16646,2.06879 0.35016,-0.056 4.7004,-0.57396 9.6672,-1.15038 z"
       style="fill:#f5921d;stroke-width:0.29331541"
       sodipodi:nodetypes="cscccccccccsccccssscsccsccscccccccccccc" />
    <path
       style="fill:#aed2ee;stroke-width:0.29331541"
       d="m 367.2759,488.68281 c -1.24808,-0.22622 -1.39245,-0.61932 -1.23771,-3.37055 0.0805,-1.43217 0.21525,-2.67371 0.29938,-2.75902 0.14463,-0.14664 6.18812,-0.2852 16.19348,-0.3713 l 4.47675,-0.0389 1.13096,-1.14662 c 1.07908,-1.09396 1.13069,-1.23285 1.12459,-3.02717 -0.003,-1.03432 -0.20357,-4.07347 -0.44459,-6.75362 -0.62192,-6.91509 -0.88111,-23.07597 -0.44999,-28.05687 0.57911,-6.69129 1.65028,-11.16628 3.17244,-13.25338 0.70745,-0.97002 0.7716,-0.99287 2.37562,-0.84535 3.01893,0.2775 6.75718,2.76453 9.17539,6.10436 1.1258,1.55484 1.24905,2.21768 0.57939,3.11589 -0.24,0.32193 -0.75385,1.60422 -1.14187,2.84958 -2.43436,7.81257 -2.83252,21.83482 -1.17679,41.44445 0.43135,5.10847 0.35614,5.58805 -0.95837,6.11028 -0.72136,0.2866 -31.53695,0.28461 -33.11868,0 z m 69.7245,-0.15547 c -0.55263,-0.27849 -0.84816,-0.95356 -1.53627,-3.50965 -0.46856,-1.74072 -0.76748,-3.25056 -0.6642,-3.35528 0.10327,-0.10466 4.2174,-0.50849 9.14246,-0.89729 9.86909,-0.77908 10.2329,-0.86978 11.21898,-2.79673 0.54087,-1.0569 0.53794,-1.28688 -0.18439,-14.47141 -0.40373,-7.3686 -0.86114,-16.32129 -1.01652,-19.89485 -0.44722,-10.28656 -2.79168,-99.03175 -2.62078,-99.20499 0.0847,-0.0859 2.57125,-0.30167 5.52566,-0.47952 5.22435,-0.31456 5.38463,-0.30719 5.84476,0.26888 0.59817,0.74893 0.56027,-0.26822 2.00483,53.78626 1.33956,50.12399 1.50611,54.98588 2.50713,73.19356 0.41374,7.52593 0.67395,13.99987 0.57821,14.38664 -0.12385,0.50032 -0.48837,0.78994 -1.26367,1.00413 -1.01229,0.27954 -10.59116,1.06124 -21.91817,1.78864 -2.64363,0.16977 -5.28521,0.35762 -5.87017,0.41752 -0.58498,0.0599 -1.3715,-0.0461 -1.74786,-0.23591 z m -85.01774,-8.57315 c -0.32768,-0.14824 -0.68194,-0.6134 -0.78726,-1.03367 -0.10534,-0.42028 0.16432,-5.28283 0.59923,-10.80557 1.48582,-18.86757 2.22459,-32.40306 2.22592,-40.78302 8.5e-4,-5.00657 -0.006,-5.06154 -0.86431,-6.80247 -1.56306,-3.17125 -5.77556,-7.41797 -13.84737,-13.96005 -2.8387,-2.30068 -3.34868,-2.86418 -3.34868,-3.69992 0,-1.38696 0.56266,-1.63568 9.7115,-4.29235 4.92832,-1.4311 9.04261,-2.68522 9.14289,-2.78685 0.29342,-0.29744 0.72538,-20.55879 0.54847,-25.72675 -0.18792,-5.49037 -0.89303,-13.42597 -2.53159,-28.49123 -0.64432,-5.92408 -1.09538,-11.07848 -1.00235,-11.45425 0.33262,-1.34364 1.26255,-1.42201 5.01949,-0.42325 6.69834,1.78083 11.66806,2.40238 21.32074,2.6666 l 7.10642,0.19451 0.52541,0.73831 c 0.50921,0.71556 0.4769,1.53163 -1.04571,26.43252 -0.86413,14.13184 -1.62192,26.39195 -1.68397,27.24475 -0.0959,1.31809 -0.0371,1.55051 0.3921,1.55051 0.53906,0 12.63241,-4.11686 16.56004,-5.63741 2.3834,-0.9227 3.91255,-2.23533 4.27032,-3.66571 0.0813,-0.32483 -1.30931,-10.34391 -3.09016,-22.26452 -1.78084,-11.9206 -3.15905,-21.99232 -3.06265,-22.38166 0.3339,-1.34877 0.99482,-1.40051 9.16764,-0.71767 12.32196,1.02946 23.85334,1.37174 32.68629,0.97029 7.76132,-0.35281 8.43608,-0.29613 8.82877,0.74129 0.10757,0.28429 0.83931,24.04401 1.62607,52.79946 1.36057,49.72831 1.66111,58.1951 2.8174,79.36663 0.47863,8.76357 0.4773,9.08867 -0.0384,9.66646 -0.29356,0.32891 -0.94178,0.66639 -1.4405,0.75004 -1.06146,0.17799 -9.22971,0.81843 -20.71576,1.62416 -9.88688,0.69358 -9.22477,0.9021 -10.38607,-3.27024 -6.54877,-23.52843 -7.41213,-26.3401 -9.68122,-31.52853 -3.51331,-8.03354 -8.3525,-14.35478 -12.68764,-16.57345 -0.96007,-0.4913 -2.67771,-1.05539 -3.81694,-1.25346 -1.89945,-0.33023 -2.16016,-0.31186 -3.14138,0.22083 -2.17549,1.18112 -3.89161,6.07112 -4.76419,13.57552 -0.7621,6.55418 -0.31443,26.33733 0.82201,36.3277 0.13748,1.20849 0.0607,1.61251 -0.42105,2.21504 l -0.5892,0.73688 h -16.9143 c -9.56563,0 -17.17308,-0.11702 -17.50999,-0.26947 z m 33.21481,-95.49309 c 0.004,-1.00753 2.51187,-42.24531 2.60395,-42.82363 0.006,-0.0408 1.96204,-0.0738 4.34574,-0.0738 3.11451,0 4.41757,0.10387 4.63109,0.3692 0.16339,0.203 0.8522,4.09039 1.53068,8.63851 l 1.23356,8.26945 -0.65461,11.07505 c -0.45211,7.64887 -0.76731,11.19663 -1.01892,11.46789 -0.32698,0.35254 -11.76072,4.48025 -12.41031,4.48025 -0.14699,0 -0.26452,-0.6313 -0.26118,-1.40287 z"
       id="path1432"
       inkscape:connector-curvature="0"
       sodipodi:nodetypes="cccccccccccccccccccccsccccccsccsccccsscccsscssccsccccscccccccssccssccccscccsccccscccccsc" />
    <path
       inkscape:connector-curvature="0"
       id="path1446"
       d="m 278.91943,488.52734 c -4.35579,-1.33132 -16.22482,-1.64687 -28.98526,-0.77045 -3.92538,0.26954 -8.69491,0.51757 -10.59895,0.55113 -4.45084,0.0784 -4.55437,-0.0125 -4.33781,-3.8119 0.0812,-1.42518 0.29632,-2.75038 0.47799,-2.94489 0.96249,-1.03045 19.66459,-1.19652 25.38286,-0.22537 5.60652,0.95212 5.59311,0.95297 7.70164,-0.49538 1.0315,-0.70857 2.14575,-1.66352 2.47613,-2.12211 l 0.60066,-0.83384 0.075,-59.99271 c 0.0412,-32.99597 0.1787,-60.09789 0.30553,-60.22644 0.34953,-0.35439 32.68395,-4.36921 35.18821,-4.36921 1.3731,0 2.49897,-0.16468 3.03049,-0.44339 0.92983,-0.48747 2.48324,-2.58877 2.76996,-3.74692 0.10037,-0.40534 0.0453,-2.78475 -0.12241,-5.28751 -0.60031,-8.96123 -0.97817,-20.09507 -0.69184,-20.38536 0.15363,-0.15575 2.14576,-0.48975 4.42692,-0.74221 l 4.14758,-0.45899 1.57453,1.05987 c 0.94459,0.63584 1.62516,1.32608 1.70108,1.72525 0.0696,0.36594 0.2673,5.3169 0.4393,11.00217 0.17201,5.6852 0.46781,12.8741 0.65733,15.97538 l 0.34459,5.63867 -0.8127,1.08021 c -0.78319,1.04104 -0.87902,1.08021 -2.63976,1.08021 -1.68043,0 -36.82099,4.26818 -37.64897,4.57287 -0.2897,0.10663 -0.36415,12.56172 -0.36415,60.93093 v 60.79693 l -0.65544,0.60011 c -0.96147,0.88023 -2.92963,2.16475 -3.27202,2.13546 -0.16308,-0.0138 -0.68978,-0.14559 -1.17043,-0.29251 z m -14.56546,-8.56808 c -3.92709,-1.21542 -16.31432,-1.63951 -26.36346,-0.90249 -8.91725,0.65394 -15.76145,0.88682 -16.66632,0.56699 -0.46959,-0.16593 -0.96416,-0.59596 -1.09902,-0.9556 -0.13975,-0.37263 -0.0731,-3.24689 0.15492,-6.68261 2.21322,-33.34668 3.6515,-65.82107 4.09298,-92.41451 0.16824,-10.13427 0.12881,-12.10985 -0.30029,-15.04849 -0.27167,-1.86053 -0.60432,-3.5827 -0.73921,-3.82703 -0.58571,-1.06113 -22.17002,0.0454 -34.61073,1.77377 -5.35481,0.74406 -5.49645,0.69707 -6.44092,-2.1383 -0.60049,-1.80274 -0.61405,-2.28338 -0.61405,-21.76913 v -19.92575 l 0.71715,-1.24062 c 1.13381,-1.96145 1.46517,-2.0218 9.85423,-1.795 12.38987,0.33498 71.33246,0.26844 79.88006,-0.0901 10.67044,-0.44767 20.6308,-1.09804 27.91235,-1.82258 l 6.06418,-0.60341 1.3949,0.90747 c 2.3938,1.55733 2.22108,0.69611 2.609,13.00948 0.19192,6.09134 0.47724,12.93574 0.63407,15.20984 0.47703,6.9168 0.50457,6.4852 -0.49395,7.73779 l -0.89465,1.12227 -3.02792,0.20577 c -3.03323,0.20615 -35.62472,4.25672 -36.30997,4.5127 -0.28969,0.10822 -0.36414,12.54559 -0.36414,60.83674 v 60.70077 l -0.60015,0.60846 c -0.77671,0.78743 -3.21092,2.35236 -3.60802,2.31951 -0.16892,-0.0138 -0.70038,-0.14712 -1.18104,-0.29587 z M 198.45664,371.36063 c -1.23423,-0.7952 -2.43105,-6.8802 -1.50207,-7.63697 0.21908,-0.1785 2.23357,-0.47114 4.47666,-0.65045 6.06607,-0.48478 18.99713,-1.01228 19.80098,-0.8077 0.57101,0.14527 0.74242,0.43819 0.92475,1.58006 0.1231,0.77091 0.22937,2.26561 0.23618,3.3214 l 0.0123,1.9197 -2.18482,0.20425 c -1.20165,0.11235 -4.54443,0.4179 -7.42837,0.67896 -2.88397,0.26105 -7.07523,0.73398 -9.31393,1.0509 -4.60854,0.65238 -4.54346,0.64803 -5.02172,0.33985 z"
       style="fill:#aed2ee;stroke-width:0.29331541"
       sodipodi:nodetypes="ccsccscccscscccccccccsccscscccccsscccsccccsccssscsssccccscccsccscsscssscc" />
    <path
       inkscape:connector-curvature="0"
       id="path1448"
       d="m 278.91943,488.52734 c -4.35579,-1.33132 -16.22482,-1.64687 -28.98526,-0.77045 -3.92538,0.26954 -8.69491,0.51757 -10.59895,0.55113 -4.45084,0.0784 -4.55437,-0.0125 -4.33781,-3.8119 0.0812,-1.42518 0.29632,-2.75038 0.47799,-2.94489 0.96249,-1.03045 19.66459,-1.19652 25.38286,-0.22537 5.60652,0.95212 5.59311,0.95297 7.70164,-0.49538 1.0315,-0.70857 2.14575,-1.66352 2.47613,-2.12211 l 0.60066,-0.83384 0.075,-59.99271 c 0.0412,-32.99597 0.1787,-60.09789 0.30553,-60.22644 0.34953,-0.35439 32.68395,-4.36921 35.18821,-4.36921 1.3731,0 2.49897,-0.16468 3.03049,-0.44339 0.92983,-0.48747 2.48324,-2.58877 2.76996,-3.74692 0.10037,-0.40534 0.0453,-2.78475 -0.12241,-5.28751 -0.60031,-8.96123 -0.97817,-20.09507 -0.69184,-20.38536 0.15363,-0.15575 2.14576,-0.48975 4.42692,-0.74221 l 4.14758,-0.45899 1.57453,1.05987 c 0.94459,0.63584 1.62516,1.32608 1.70108,1.72525 0.0696,0.36594 0.2673,5.3169 0.4393,11.00217 0.17201,5.6852 0.46781,12.8741 0.65733,15.97538 l 0.34459,5.63867 -0.8127,1.08021 c -0.78319,1.04104 -0.87902,1.08021 -2.63976,1.08021 -1.68043,0 -36.82099,4.26818 -37.64897,4.57287 -0.2897,0.10663 -0.36415,12.56172 -0.36415,60.93093 v 60.79693 l -0.65544,0.60011 c -0.96147,0.88023 -2.92963,2.16475 -3.27202,2.13546 -0.16308,-0.0138 -0.68978,-0.14559 -1.17043,-0.29251 z m -14.56546,-8.56808 c -3.92709,-1.21542 -16.31432,-1.63951 -26.36346,-0.90249 -8.91725,0.65394 -15.76145,0.88682 -16.66632,0.56699 -0.46959,-0.16593 -0.96416,-0.59596 -1.09902,-0.9556 -0.13975,-0.37263 -0.0731,-3.24689 0.15492,-6.68261 2.21322,-33.34668 3.6515,-65.82107 4.09298,-92.41451 0.16824,-10.13427 0.12881,-12.10985 -0.30029,-15.04849 -0.27167,-1.86053 -0.60432,-3.5827 -0.73921,-3.82703 -0.58571,-1.06113 -22.17002,0.0454 -34.61073,1.77377 -5.35481,0.74406 -5.49645,0.69707 -6.44092,-2.1383 -0.60049,-1.80274 -0.61405,-2.28338 -0.61405,-21.76913 v -19.92575 l 0.71715,-1.24062 c 1.13381,-1.96145 1.46517,-2.0218 9.85423,-1.795 12.38987,0.33498 71.33246,0.26844 79.88006,-0.0901 10.67044,-0.44767 20.6308,-1.09804 27.91235,-1.82258 l 6.06418,-0.60341 1.3949,0.90747 c 2.3938,1.55733 2.22108,0.69611 2.609,13.00948 0.19192,6.09134 0.47724,12.93574 0.63407,15.20984 0.47703,6.9168 0.50457,6.4852 -0.49395,7.73779 l -0.89465,1.12227 -3.02792,0.20577 c -3.03323,0.20615 -35.62472,4.25672 -36.30997,4.5127 -0.28969,0.10822 -0.36414,12.54559 -0.36414,60.83674 v 60.70077 l -0.60015,0.60846 c -0.77671,0.78743 -3.21092,2.35236 -3.60802,2.31951 -0.16892,-0.0138 -0.70038,-0.14712 -1.18104,-0.29587 z M 198.45664,371.36063 c -1.23423,-0.7952 -2.43105,-6.8802 -1.50207,-7.63697 0.21908,-0.1785 2.23357,-0.47114 4.47666,-0.65045 6.06607,-0.48478 18.99713,-1.01228 19.80098,-0.8077 0.57101,0.14527 0.74242,0.43819 0.92475,1.58006 0.1231,0.77091 0.22937,2.26561 0.23618,3.3214 l 0.0123,1.9197 -2.18482,0.20425 c -1.20165,0.11235 -4.54443,0.4179 -7.42837,0.67896 -2.88397,0.26105 -7.07523,0.73398 -9.31393,1.0509 -4.60854,0.65238 -4.54346,0.64803 -5.02172,0.33985 z"
       style="fill:#dadda7;stroke-width:0.29331541"
       sodipodi:nodetypes="ccsccscccscscccccccccsccscscccccsscccsccccsccssscsssccccscccsccscsscssscc" />
    <path
       inkscape:connector-curvature="0"
       id="path1450"
       d="m 263.18874,479.22778 c -5.01148,-1.10463 -15.04954,-1.32803 -26.37994,-0.58707 -3.59589,0.23518 -8.50432,0.51703 -10.90762,0.62629 -4.15185,0.18892 -4.39605,0.16897 -4.89965,-0.39961 -0.51264,-0.57877 -0.51047,-0.90195 0.0667,-9.85556 2.4482,-37.97852 3.77457,-69.87342 3.86065,-92.83715 0.0376,-10.05501 -0.0156,-11.48394 -0.5124,-13.73309 l -0.55449,-2.51034 -3.93266,-0.0929 c -7.23191,-0.17074 -21.2241,0.76755 -30.52858,2.04727 -2.45103,0.33708 -4.76563,0.53421 -5.14356,0.43804 -0.53132,-0.13519 -0.82542,-0.58996 -1.29693,-2.00547 -0.59521,-1.78687 -0.6098,-2.31187 -0.6098,-21.94113 v -20.11052 l 0.84208,-1.02252 0.84208,-1.02251 43.94668,-6e-4 c 31.93016,-5.9e-4 45.6194,-0.10256 50.06417,-0.3732 9.56286,-0.58225 17.91477,-1.20921 23.22216,-1.74321 l 4.86967,-0.48995 1.57986,1.06347 1.57987,1.06345 0.17459,5.26079 c 0.3841,11.57356 0.8141,21.36693 1.06635,24.28647 0.24695,2.85814 0.223,3.14789 -0.33581,4.06459 -0.83961,1.37727 -1.33911,1.56941 -4.09906,1.57657 -2.66845,0.006 -36.20513,4.1684 -36.56954,4.5378 -0.12504,0.12677 -0.29291,27.62467 -0.37302,61.10648 l -0.14566,60.87598 -1.45653,1.11839 c -1.57536,1.20968 -1.75194,1.23627 -4.36964,0.65927 z"
       style="fill:#cca2ca;stroke-width:0.29331541"
       sodipodi:nodetypes="cccccsccssccsccccssccccssccscccc" />
    <path
       inkscape:connector-curvature="0"
       id="path1452"
       d="m 263.18874,479.22778 c -5.01148,-1.10463 -15.04954,-1.32803 -26.37994,-0.58707 -3.59589,0.23518 -8.50432,0.51703 -10.90762,0.62629 -4.15185,0.18892 -4.39605,0.16897 -4.89965,-0.39961 -0.51264,-0.57877 -0.51047,-0.90195 0.0667,-9.85556 2.4482,-37.97852 3.77457,-69.87342 3.86065,-92.83715 0.0376,-10.05501 -0.0156,-11.48394 -0.5124,-13.73309 l -0.55449,-2.51034 -3.93266,-0.0929 c -7.23191,-0.17074 -21.2241,0.76755 -30.52858,2.04727 -2.45103,0.33708 -4.76563,0.53421 -5.14356,0.43804 -0.53132,-0.13519 -0.82542,-0.58996 -1.29693,-2.00547 -0.59521,-1.78687 -0.6098,-2.31187 -0.6098,-21.94113 v -20.11052 l 0.84208,-1.02252 0.84208,-1.02251 43.94668,-6e-4 c 31.93016,-5.9e-4 45.6194,-0.10256 50.06417,-0.3732 9.56286,-0.58225 17.91477,-1.20921 23.22216,-1.74321 l 4.86967,-0.48995 1.57986,1.06347 1.57987,1.06345 0.17459,5.26079 c 0.3841,11.57356 0.8141,21.36693 1.06635,24.28647 0.24695,2.85814 0.223,3.14789 -0.33581,4.06459 -0.83961,1.37727 -1.33911,1.56941 -4.09906,1.57657 -2.66845,0.006 -36.20513,4.1684 -36.56954,4.5378 -0.12504,0.12677 -0.29291,27.62467 -0.37302,61.10648 l -0.14566,60.87598 -1.45653,1.11839 c -1.57536,1.20968 -1.75194,1.23627 -4.36964,0.65927 z"
       style="fill:#f07aa8;stroke-width:0.29331541"
       sodipodi:nodetypes="cccccsccssccsccccssccccssccscccc" />
    <path
       inkscape:connector-curvature="0"
       id="path1454"
       d="m 263.18874,479.22778 c -5.01148,-1.10463 -15.04954,-1.32803 -26.37994,-0.58707 -3.59589,0.23518 -8.50432,0.51703 -10.90762,0.62629 -4.15185,0.18892 -4.39605,0.16897 -4.89965,-0.39961 -0.51264,-0.57877 -0.51047,-0.90195 0.0667,-9.85556 2.4482,-37.97852 3.77457,-69.87342 3.86065,-92.83715 0.0376,-10.05501 -0.0156,-11.48394 -0.5124,-13.73309 l -0.55449,-2.51034 -3.93266,-0.0929 c -7.23191,-0.17074 -21.2241,0.76755 -30.52858,2.04727 -2.45103,0.33708 -4.76563,0.53421 -5.14356,0.43804 -0.53132,-0.13519 -0.82542,-0.58996 -1.29693,-2.00547 -0.59521,-1.78687 -0.6098,-2.31187 -0.6098,-21.94113 v -20.11052 l 0.84208,-1.02252 0.84208,-1.02251 43.94668,-6e-4 c 31.93016,-5.9e-4 45.6194,-0.10256 50.06417,-0.3732 9.56286,-0.58225 17.91477,-1.20921 23.22216,-1.74321 l 4.86967,-0.48995 1.57986,1.06347 1.57987,1.06345 0.17459,5.26079 c 0.3841,11.57356 0.8141,21.36693 1.06635,24.28647 0.24695,2.85814 0.223,3.14789 -0.33581,4.06459 -0.83961,1.37727 -1.33911,1.56941 -4.09906,1.57657 -2.66845,0.006 -36.20513,4.1684 -36.56954,4.5378 -0.12504,0.12677 -0.29291,27.62467 -0.37302,61.10648 l -0.14566,60.87598 -1.45653,1.11839 c -1.57536,1.20968 -1.75194,1.23627 -4.36964,0.65927 z"
       style="fill:#f5921d;stroke-width:0.29331541"
       sodipodi:nodetypes="cccccsccssccsccccssccccssccscccc" />
    <path
       inkscape:connector-curvature="0"
       id="path1456"
       d="m 263.18874,479.22778 c -5.01148,-1.10463 -15.04954,-1.32803 -26.37994,-0.58707 -3.59589,0.23518 -8.50432,0.51703 -10.90762,0.62629 -4.15185,0.18892 -4.39605,0.16897 -4.89965,-0.39961 -0.51264,-0.57877 -0.51047,-0.90195 0.0667,-9.85556 2.4482,-37.97852 3.77457,-69.87342 3.86065,-92.83715 0.0376,-10.05501 -0.0156,-11.48394 -0.5124,-13.73309 l -0.55449,-2.51034 -3.93266,-0.0929 c -7.23191,-0.17074 -21.2241,0.76755 -30.52858,2.04727 -2.45103,0.33708 -4.76563,0.53421 -5.14356,0.43804 -0.53132,-0.13519 -0.82542,-0.58996 -1.29693,-2.00547 -0.59521,-1.78687 -0.6098,-2.31187 -0.6098,-21.94113 v -20.11052 l 0.84208,-1.02252 0.84208,-1.02251 43.94668,-6e-4 c 31.93016,-5.9e-4 45.6194,-0.10256 50.06417,-0.3732 9.56286,-0.58225 17.91477,-1.20921 23.22216,-1.74321 l 4.86967,-0.48995 1.57986,1.06347 1.57987,1.06345 0.17459,5.26079 c 0.3841,11.57356 0.8141,21.36693 1.06635,24.28647 0.24695,2.85814 0.223,3.14789 -0.33581,4.06459 -0.83961,1.37727 -1.33911,1.56941 -4.09906,1.57657 -2.66845,0.006 -36.20513,4.1684 -36.56954,4.5378 -0.12504,0.12677 -0.29291,27.62467 -0.37302,61.10648 l -0.14566,60.87598 -1.45653,1.11839 c -1.57536,1.20968 -1.75194,1.23627 -4.36964,0.65927 z"
       style="fill:#8ac33e;stroke-width:0.29331541"
       sodipodi:nodetypes="cccccsccssccsccccssccccssccscccc" />
    <path
       style="fill:#aed2ee;stroke-width:0.29331541"
       d="m 93.670847,484.99618 c -5.46279,-0.79007 -10.9805,-2.67871 -15.13323,-5.17989 -1.10171,-0.66355 -2.00309,-1.34679 -2.00309,-1.51832 0,-0.19944 0.49888,-0.2496 1.3837,-0.13908 0.76106,0.0951 4.26769,0.25664 7.79252,0.35906 9.33629,0.27138 16.288543,-0.72773 23.887333,-3.43277 18.3453,-6.53068 32.38158,-22.99704 39.28193,-46.08275 4.47475,-14.97067 5.43639,-35.97272 2.33169,-50.92312 -1.53288,-7.38131 -4.5576,-14.89361 -8.08807,-20.0877 -1.88996,-2.78054 -1.65789,-3.11024 1.0259,-1.45737 9.74392,6.00094 16.73807,16.98424 19.60819,30.79184 1.26002,6.06164 1.74493,11.35888 1.74852,19.10057 0.0122,26.52861 -7.617,48.06578 -22.23139,62.75882 -8.32997,8.37476 -17.61789,13.18493 -29.74409,15.40412 -4.359,0.79776 -15.568383,1.02722 -19.859913,0.40659 z m -11.31015,-8.30624 c -7.68548,-0.9233 -11.66785,-2.02319 -16.60461,-4.58597 -10.268528,-5.33068 -17.024156,-15.69637 -19.631559,-30.12224 -1.833843,-10.14605 -2.007263,-20.21653 -0.588816,-34.19262 1.881463,-18.53825 7.515632,-34.829 16.081178,-46.49744 11.171077,-15.21777 27.266007,-22.12004 47.25292,-20.26411 11.65379,1.08212 20.82378,5.11241 27.82205,12.228 7.25352,7.37512 11.5583,17.00361 13.58438,30.38409 0.76327,5.04073 1.05336,16.87234 0.56649,23.10446 -1.06886,13.68194 -3.96713,24.98257 -9.03604,35.23268 -9.7668,19.74989 -24.491,31.09943 -44.297923,34.1451 -2.91792,0.44864 -12.99592,0.82659 -15.14807,0.56805 z m 14.87442,-34.79898 c 11.465783,-2.07387 19.234593,-13.17592 22.026683,-31.47726 0.64914,-4.25488 0.74221,-17.06955 0.15233,-20.96886 -2.1022,-13.89561 -8.18555,-20.37812 -19.12333,-20.37812 -5.595043,0 -9.392583,1.59824 -13.269163,5.58462 -4.65981,4.79174 -7.67431,11.61817 -9.60155,21.74294 -1.36622,7.17746 -1.9243,20.11114 -1.14653,26.5712 1.75683,14.5918 8.96083,21.0961 20.96156,18.92548 z m -8.46563,-2.07098 c -3.99241,-1.12628 -6.70272,-3.77641 -8.53341,-8.34407 -4.60813,-11.49744 -2.67651,-37.0251 3.73333,-49.3386 3.73908,-7.18291 8.47831,-10.70026 15.05029,-11.17003 4.792633,-0.3426 9.040223,0.98733 12.044813,3.77135 2.53214,2.34624 2.69408,3.17223 0.62411,3.18363 -1.37265,0.008 -5.05322,1.41056 -7.0436,2.68495 -5.137153,3.28927 -9.406113,10.47706 -11.766803,19.81218 -1.61073,6.36948 -2.30088,11.78303 -2.55427,20.03569 -0.23977,7.80941 0.11197,11.42912 1.85835,19.12301 0.13708,0.60392 0.0483,0.66211 -0.97554,0.63809 -0.61951,-0.0145 -1.71628,-0.19279 -2.43727,-0.3962 z"
       id="path1460"
       inkscape:connector-curvature="0"
       sodipodi:nodetypes="ccscccsccccccccccsscccscsccsssscscscccccccssccc" />
    <path
       style="fill:#dadda7;stroke-width:0.29331541"
       d="m 93.670847,484.99618 c -5.46279,-0.79007 -10.9805,-2.67871 -15.13323,-5.17989 -1.10171,-0.66355 -2.00309,-1.34679 -2.00309,-1.51832 0,-0.19944 0.49888,-0.2496 1.3837,-0.13908 0.76106,0.0951 4.26769,0.25664 7.79252,0.35906 9.33629,0.27138 16.288543,-0.72773 23.887333,-3.43277 18.3453,-6.53068 32.38158,-22.99704 39.28193,-46.08275 4.47475,-14.97067 5.43639,-35.97272 2.33169,-50.92312 -1.53288,-7.38131 -4.5576,-14.89361 -8.08807,-20.0877 -1.88996,-2.78054 -1.65789,-3.11024 1.0259,-1.45737 9.74392,6.00094 16.73807,16.98424 19.60819,30.79184 1.26002,6.06164 1.74493,11.35888 1.74852,19.10057 0.0122,26.52861 -7.617,48.06578 -22.23139,62.75882 -8.32997,8.37476 -17.61789,13.18493 -29.74409,15.40412 -4.359,0.79776 -15.568383,1.02722 -19.859913,0.40659 z m -11.31015,-8.30624 c -7.68548,-0.9233 -11.66785,-2.02319 -16.60461,-4.58597 -10.268528,-5.33068 -17.024156,-15.69637 -19.631559,-30.12224 -1.833843,-10.14605 -2.007263,-20.21653 -0.588816,-34.19262 1.881463,-18.53825 7.515632,-34.829 16.081178,-46.49744 11.171077,-15.21777 27.266007,-22.12004 47.25292,-20.26411 11.65379,1.08212 20.82378,5.11241 27.82205,12.228 7.25352,7.37512 11.5583,17.00361 13.58438,30.38409 0.76327,5.04073 1.05336,16.87234 0.56649,23.10446 -1.06886,13.68194 -3.96713,24.98257 -9.03604,35.23268 -9.7668,19.74989 -24.491,31.09943 -44.297923,34.1451 -2.91792,0.44864 -12.99592,0.82659 -15.14807,0.56805 z m 14.87442,-34.79898 c 11.465783,-2.07387 19.234593,-13.17592 22.026683,-31.47726 0.64914,-4.25488 0.74221,-17.06955 0.15233,-20.96886 -2.1022,-13.89561 -8.18555,-20.37812 -19.12333,-20.37812 -5.595043,0 -9.392583,1.59824 -13.269163,5.58462 -4.65981,4.79174 -7.67431,11.61817 -9.60155,21.74294 -1.36622,7.17746 -1.9243,20.11114 -1.14653,26.5712 1.75683,14.5918 8.96083,21.0961 20.96156,18.92548 z m -8.46563,-2.07098 c -3.99241,-1.12628 -6.70272,-3.77641 -8.53341,-8.34407 -4.60813,-11.49744 -2.67651,-37.0251 3.73333,-49.3386 3.73908,-7.18291 8.47831,-10.70026 15.05029,-11.17003 4.792633,-0.3426 9.040223,0.98733 12.044813,3.77135 2.53214,2.34624 2.69408,3.17223 0.62411,3.18363 -1.37265,0.008 -5.05322,1.41056 -7.0436,2.68495 -5.137153,3.28927 -9.406113,10.47706 -11.766803,19.81218 -1.61073,6.36948 -2.30088,11.78303 -2.55427,20.03569 -0.23977,7.80941 0.11197,11.42912 1.85835,19.12301 0.13708,0.60392 0.0483,0.66211 -0.97554,0.63809 -0.61951,-0.0145 -1.71628,-0.19279 -2.43727,-0.3962 z"
       id="path1462"
       inkscape:connector-curvature="0"
       sodipodi:nodetypes="ccscccsccccccccccsscccscsccsssscscscccccccssccc" />
    <path
       style="fill:#cca2ca;stroke-width:0.29331541"
       d="m 93.670847,484.99618 c -5.46279,-0.79007 -10.9805,-2.67871 -15.13323,-5.17989 -1.10171,-0.66355 -2.00309,-1.34679 -2.00309,-1.51832 0,-0.19944 0.49888,-0.2496 1.3837,-0.13908 0.76106,0.0951 4.26769,0.25664 7.79252,0.35906 9.33629,0.27138 16.288543,-0.72773 23.887333,-3.43277 18.3453,-6.53068 32.38158,-22.99704 39.28193,-46.08275 4.47475,-14.97067 5.43639,-35.97272 2.33169,-50.92312 -1.53288,-7.38131 -4.5576,-14.89361 -8.08807,-20.0877 -1.88996,-2.78054 -1.65789,-3.11024 1.0259,-1.45737 9.74392,6.00094 16.73807,16.98424 19.60819,30.79184 1.26002,6.06164 1.74493,11.35888 1.74852,19.10057 0.0122,26.52861 -7.617,48.06578 -22.23139,62.75882 -8.32997,8.37476 -17.61789,13.18493 -29.74409,15.40412 -4.359,0.79776 -15.568383,1.02722 -19.859913,0.40659 z m -11.31015,-8.30624 c -7.68548,-0.9233 -11.66785,-2.02319 -16.60461,-4.58597 -10.268528,-5.33068 -17.024156,-15.69637 -19.631559,-30.12224 -1.833843,-10.14605 -2.007263,-20.21653 -0.588816,-34.19262 1.881463,-18.53825 7.515632,-34.829 16.081178,-46.49744 11.171077,-15.21777 27.266007,-22.12004 47.25292,-20.26411 11.65379,1.08212 20.82378,5.11241 27.82205,12.228 7.25352,7.37512 11.5583,17.00361 13.58438,30.38409 0.76327,5.04073 1.05336,16.87234 0.56649,23.10446 -1.06886,13.68194 -3.96713,24.98257 -9.03604,35.23268 -9.7668,19.74989 -24.491,31.09943 -44.297923,34.1451 -2.91792,0.44864 -12.99592,0.82659 -15.14807,0.56805 z m 14.87442,-34.79898 c 11.465783,-2.07387 19.234593,-13.17592 22.026683,-31.47726 0.64914,-4.25488 0.74221,-17.06955 0.15233,-20.96886 -2.1022,-13.89561 -8.18555,-20.37812 -19.12333,-20.37812 -5.595043,0 -9.392583,1.59824 -13.269163,5.58462 -4.65981,4.79174 -7.67431,11.61817 -9.60155,21.74294 -1.36622,7.17746 -1.9243,20.11114 -1.14653,26.5712 1.75683,14.5918 8.96083,21.0961 20.96156,18.92548 z m -8.46563,-2.07098 c -3.99241,-1.12628 -6.70272,-3.77641 -8.53341,-8.34407 -4.60813,-11.49744 -2.67651,-37.0251 3.73333,-49.3386 3.73908,-7.18291 8.47831,-10.70026 15.05029,-11.17003 4.792633,-0.3426 9.040223,0.98733 12.044813,3.77135 2.53214,2.34624 2.69408,3.17223 0.62411,3.18363 -1.37265,0.008 -5.05322,1.41056 -7.0436,2.68495 -5.137153,3.28927 -9.406113,10.47706 -11.766803,19.81218 -1.61073,6.36948 -2.30088,11.78303 -2.55427,20.03569 -0.23977,7.80941 0.11197,11.42912 1.85835,19.12301 0.13708,0.60392 0.0483,0.66211 -0.97554,0.63809 -0.61951,-0.0145 -1.71628,-0.19279 -2.43727,-0.3962 z"
       id="path1464"
       inkscape:connector-curvature="0"
       sodipodi:nodetypes="ccscccsccccccccccsscccscsccsssscscscccccccssccc" />
    <path
       style="fill:#f07aa8;stroke-width:0.29331541"
       d="m 95.083617,484.84222 c -3.21667,-0.41225 -6.57437,-1.16447 -9.28632,-2.08045 -2.86201,-0.96666 -6.71443,-2.8505 -7.80623,-3.81723 l -0.72827,-0.64486 0.74885,0.16061 c 1.90842,0.40922 9.19707,0.77473 12.21439,0.61254 10.121533,-0.54421 18.188963,-2.56687 25.951583,-6.5066 18.32059,-9.29818 31.49108,-29.65245 35.63027,-55.06446 1.02975,-6.32203 1.31561,-9.47657 1.52551,-16.83418 0.49539,-17.36515 -2.66652,-31.59448 -9.31744,-41.93068 -0.88594,-1.37687 -1.55966,-2.55522 -1.49715,-2.61861 0.0625,-0.0631 0.80845,0.31752 1.65763,0.84641 10.08039,6.27872 16.93966,17.59988 19.58967,32.33249 1.69136,9.40304 1.93195,19.54025 0.72545,30.56719 -1.921,17.5573 -7.79953,32.76573 -17.18052,44.44805 -0.91306,1.13703 -3.15575,3.52927 -4.98378,5.31601 -8.14456,7.96081 -17.29022,12.54645 -29.23347,14.65756 -3.64927,0.64506 -14.662993,0.98523 -18.010173,0.55621 z m -14.56545,-8.56473 c -14.044528,-1.79991 -23.647285,-8.23094 -29.401479,-19.6902 -3.354918,-6.68122 -4.975446,-13.07335 -5.903182,-23.28508 -0.690451,-7.59991 -0.502227,-15.68183 0.605282,-25.98953 2.102531,-19.56856 8.180394,-36.21171 17.479706,-47.86516 9.826653,-12.31428 22.978163,-18.43773 39.599486,-18.43773 25.71727,0 41.95352,13.72466 46.59054,39.38329 1.84343,10.20048 1.98186,20.63272 0.43707,32.93569 -1.76445,14.0524 -6.15072,26.41303 -13.10703,36.9359 -6.47307,9.79191 -13.45148,16.05174 -23.0294,20.65805 -5.10304,2.45417 -9.1093,3.71422 -15.260813,4.79956 -3.64995,0.64406 -14.66722,0.98364 -18.01018,0.55521 z m 18.15584,-34.43847 c 10.649353,-2.46675 18.325763,-14.19708 20.846123,-31.85494 0.23289,-1.63174 0.50592,-5.35899 0.60669,-8.28281 0.6638,-19.25722 -4.63596,-30.41416 -15.43378,-32.49079 -15.190813,-2.92152 -25.223603,8.54143 -28.307893,32.34315 -0.65096,5.02356 -0.89862,15.81544 -0.46126,20.10047 1.29604,12.69856 5.83788,19.35431 14.07786,20.63001 2.22969,0.34517 6.12307,0.14541 8.67226,-0.44509 z m -9.46755,-2.3016 c -8.35634,-2.06287 -12.07357,-12.5084 -10.94227,-30.74808 1.25629,-20.25476 7.0641,-33.30673 16.28902,-36.60646 3.26965,-1.16953 8.817843,-1.09916 12.120773,0.1537 2.55517,0.96923 6.51567,4.26245 5.88953,4.89724 -0.0769,0.078 -1.01614,0.32766 -2.08715,0.55489 -7.75624,1.64522 -13.475123,8.17511 -17.007883,19.41973 -2.49532,7.94244 -3.39049,14.8 -3.38155,25.90467 0.006,8.25419 0.28265,11.15406 1.43825,15.11029 0.55494,1.89983 0.40296,1.98593 -2.31872,1.31402 z"
       id="path1466"
       inkscape:connector-curvature="0"
       sodipodi:nodetypes="cscccccsscccssccscccssssssccccccccsscccsccccscsc" />
    <path
       style="fill:#f5921d;stroke-width:0.29331541"
       d="m 80.904147,475.49045 c -10.80748,-1.66149 -16.89426,-4.44912 -22.732271,-10.41097 -6.483422,-6.621 -10.512288,-16.40824 -11.925996,-28.9716 -0.886979,-7.88241 -0.633646,-20.9272 0.596488,-30.7149 2.686762,-21.37749 9.978936,-38.5777 21.097889,-49.76407 6.57023,-6.61 14.28091,-10.75416 23.91885,-12.85521 3.64576,-0.79481 13.669133,-1.13399 18.045593,-0.6107 5.74723,0.68712 11.8948,2.43213 16.05976,4.55858 11.00494,5.6186 18.58292,16.01529 21.94144,30.10283 3.51332,14.73674 2.87538,34.63843 -1.61797,50.47455 -5.01253,17.6659 -14.98633,32.05931 -27.81632,40.14242 -6.53539,4.11738 -14.62731,6.87606 -23.285673,7.93855 -2.29739,0.28192 -12.64593,0.36203 -14.28179,0.11052 z m 17.41594,-32.76427 c 2.934653,-0.61459 5.155503,-1.54966 7.611253,-3.20482 7.34164,-4.94819 12.70924,-16.12534 14.4747,-30.14133 0.66532,-5.28204 0.66837,-15.35403 0.006,-20.01333 -1.70855,-12.01953 -6.44884,-18.75848 -14.61985,-20.7839 -2.7589,-0.68389 -8.365763,-0.68764 -10.884223,-0.007 -7.48551,2.02218 -12.91553,8.31117 -16.2949,18.87248 -2.25555,7.0491 -3.39465,14.44582 -3.71867,24.14697 -0.61345,18.36605 3.82023,28.83416 13.18583,31.13241 2.34574,0.57562 7.48806,0.57502 10.23979,0 z"
       id="path1468"
       inkscape:connector-curvature="0"
       sodipodi:nodetypes="ccssccccsscccccsccccsccc" />
    <path
       style="fill:#8ac33e;stroke-width:0.29331541"
       d="m 80.904147,475.49045 c -10.80748,-1.66149 -16.89426,-4.44912 -22.732271,-10.41097 -6.483422,-6.621 -10.512288,-16.40824 -11.925996,-28.9716 -0.886979,-7.88241 -0.633646,-20.9272 0.596488,-30.7149 2.686762,-21.37749 9.978936,-38.5777 21.097889,-49.76407 6.57023,-6.61 14.28091,-10.75416 23.91885,-12.85521 3.64576,-0.79481 13.669133,-1.13399 18.045593,-0.6107 5.74723,0.68712 11.8948,2.43213 16.05976,4.55858 11.00494,5.6186 18.58292,16.01529 21.94144,30.10283 3.51332,14.73674 2.87538,34.63843 -1.61797,50.47455 -5.01253,17.6659 -14.98633,32.05931 -27.81632,40.14242 -6.53539,4.11738 -14.62731,6.87606 -23.285673,7.93855 -2.29739,0.28192 -12.64593,0.36203 -14.28179,0.11052 z m 17.41594,-32.76427 c 2.934653,-0.61459 5.155503,-1.54966 7.611253,-3.20482 7.34164,-4.94819 12.70924,-16.12534 14.4747,-30.14133 0.66532,-5.28204 0.66837,-15.35403 0.006,-20.01333 -1.70855,-12.01953 -6.44884,-18.75848 -14.61985,-20.7839 -2.7589,-0.68389 -8.365763,-0.68764 -10.884223,-0.007 -7.48551,2.02218 -12.91553,8.31117 -16.2949,18.87248 -2.25555,7.0491 -3.39465,14.44582 -3.71867,24.14697 -0.61345,18.36605 3.82023,28.83416 13.18583,31.13241 2.34574,0.57562 7.48806,0.57502 10.23979,0 z"
       id="path1470"
       inkscape:connector-curvature="0"
       sodipodi:nodetypes="ccssccccsscccccsccccsccc" />
    <path
       style="fill:#8f268d;stroke-width:0.29331541"
       d="m 80.904147,475.49045 c -10.80748,-1.66149 -16.89426,-4.44912 -22.732271,-10.41097 -6.483422,-6.621 -10.512288,-16.40824 -11.925996,-28.9716 -0.886979,-7.88241 -0.633646,-20.9272 0.596488,-30.7149 2.686762,-21.37749 9.978936,-38.5777 21.097889,-49.76407 6.57023,-6.61 14.28091,-10.75416 23.91885,-12.85521 3.64576,-0.79481 13.669133,-1.13399 18.045593,-0.6107 5.74723,0.68712 11.8948,2.43213 16.05976,4.55858 11.00494,5.6186 18.58292,16.01529 21.94144,30.10283 3.51332,14.73674 2.87538,34.63843 -1.61797,50.47455 -5.01253,17.6659 -14.98633,32.05931 -27.81632,40.14242 -6.53539,4.11738 -14.62731,6.87606 -23.285673,7.93855 -2.29739,0.28192 -12.64593,0.36203 -14.28179,0.11052 z m 17.41594,-32.76427 c 2.934653,-0.61459 5.155503,-1.54966 7.611253,-3.20482 7.34164,-4.94819 12.70924,-16.12534 14.4747,-30.14133 0.66532,-5.28204 0.66837,-15.35403 0.006,-20.01333 -1.70855,-12.01953 -6.44884,-18.75848 -14.61985,-20.7839 -2.7589,-0.68389 -8.365763,-0.68764 -10.884223,-0.007 -7.48551,2.02218 -12.91553,8.31117 -16.2949,18.87248 -2.25555,7.0491 -3.39465,14.44582 -3.71867,24.14697 -0.61345,18.36605 3.82023,28.83416 13.18583,31.13241 2.34574,0.57562 7.48806,0.57502 10.23979,0 z"
       id="path1472"
       inkscape:connector-curvature="0"
       sodipodi:nodetypes="ccssccccsscccccsccccsccc" />
    <path
       inkscape:connector-curvature="0"
       id="path1474"
       d="m 663.19311,488.52734 c -0.49219,-0.55929 -0.53244,-0.9304 -0.36313,-3.34871 0.10472,-1.49587 0.28828,-2.81653 0.40787,-2.93488 0.11961,-0.11834 20.66735,-0.56462 45.66166,-0.99174 50.53089,-0.86353 46.8172,-0.64532 47.96647,-2.81792 0.47107,-0.89051 0.53657,-1.75285 0.53729,-7.07313 0,-9.42548 0.32659,-17.12846 0.74106,-17.54867 0.22743,-0.23058 2.34225,-0.49189 5.83626,-0.72115 l 5.47961,-0.35952 0.6983,0.70798 0.69829,0.70791 -0.32696,4.69123 c -0.17985,2.58017 -0.41008,9.73603 -0.51165,15.90187 -0.18406,11.17411 -0.18681,11.21275 -0.85209,11.88723 -0.58803,0.59616 -0.95478,0.67685 -3.08393,0.67843 -3.7057,0 -85.24187,1.43308 -94.32454,1.65464 -7.92566,0.19332 -8.01689,0.18871 -8.56451,-0.43357 z m -14.06571,-8.31822 c -1.26242,-0.50518 -1.3023,-1.00951 -0.68166,-8.62074 2.10881,-25.86249 3.01021,-49.33075 3.0092,-78.3483 0,-20.76883 -0.26324,-32.68944 -1.12214,-50.94537 -0.85253,-18.1208 -0.8473,-17.83888 -0.34252,-18.35066 0.40157,-0.4071 2.50078,-0.48635 17.01172,-0.64221 9.10451,-0.0977 19.40522,-0.32102 22.8905,-0.49611 6.78517,-0.3409 7.35085,-0.26684 7.66531,1.0034 0.0946,0.38184 0.0307,2.20537 -0.14178,4.05235 -0.80907,8.66213 -1.90692,30.25545 -4.24648,83.52461 -0.87352,19.88879 -1.52269,36.22784 -1.44267,36.30901 0.0801,0.0811 13.87385,-0.74656 30.65292,-1.83934 16.77905,-1.09285 31.04419,-1.98211 31.70028,-1.97625 1.42193,0.0125 2.25738,0.77959 2.22201,2.03977 -0.0131,0.46726 -0.15908,3.95631 -0.32443,7.75347 -0.16533,3.79715 -0.38599,10.71776 -0.49036,15.37916 -0.17597,7.8607 -0.23048,8.51267 -0.75195,8.99112 -0.52246,0.47933 -3.907,0.57234 -47.81467,1.31343 -25.98881,0.43871 -49.4809,0.86727 -52.20464,0.95245 -2.72374,0.0852 -5.23863,0.0402 -5.58864,-0.0998 z m 44.60488,-34.93405 c -0.0806,-0.21293 0.58142,-16.9252 1.47113,-37.13849 2.52566,-57.37983 3.47468,-75.22293 4.03103,-75.79019 0.22701,-0.23149 2.32892,-0.42053 6.20858,-0.55843 l 5.86541,-0.20859 0.45347,0.70615 c 0.37376,0.58206 0.40752,1.09528 0.19219,2.92112 -0.64475,5.467 -1.78919,26.54584 -3.34324,61.5775 -0.56205,12.66987 -1.26827,28.5953 -1.56942,35.38974 -0.30113,6.7945 -0.66171,12.46029 -0.80125,12.59074 -0.24338,0.22742 -8.54569,0.89756 -11.11986,0.89756 -0.75518,0 -1.2989,-0.15165 -1.38804,-0.38711 z"
       style="fill:#aed2ee;stroke-width:0.29331541"
       sodipodi:nodetypes="cccsccccccccccccccccscccccsccccccccsccscccccsccsc" />
    <path
       inkscape:connector-curvature="0"
       id="path1476"
       d="m 644.4787,477.78073 c -0.14943,6.72474 -0.27949,8.71296 -0.58688,8.97158 -1.12345,2.86768 -0.10161,-11.91896 0.58688,-8.97158 z m 18.71441,10.74661 c -0.49219,-0.55929 -0.53244,-0.9304 -0.36313,-3.34871 0.10472,-1.49587 0.28828,-2.81653 0.40787,-2.93488 0.11961,-0.11828 20.66735,-0.56455 45.66166,-0.99174 50.53089,-0.86353 46.8172,-0.64532 47.96647,-2.81786 0.47107,-0.89051 0.53657,-1.75291 0.53729,-7.07319 0,-9.42548 0.32659,-17.12846 0.74106,-17.54867 0.22743,-0.23058 2.34225,-0.49183 5.83626,-0.72109 l 5.47961,-0.35958 0.6983,0.70798 0.69829,0.70791 -0.32696,4.69123 c -0.17985,2.58017 -0.41008,9.73603 -0.51165,15.90187 -0.18406,11.17411 -0.18681,11.21281 -0.85209,11.88723 -0.58803,0.59622 -0.95478,0.67685 -3.08393,0.6785 -3.7057,0 -85.24187,1.43301 -94.32454,1.65457 -7.92566,0.19332 -8.01689,0.18871 -8.56451,-0.43357 z m -14.06571,-8.31822 c -1.26242,-0.50518 -1.3023,-1.00951 -0.68166,-8.62074 2.10881,-25.86249 3.01021,-49.33075 3.0092,-78.3483 0,-20.76883 -0.26324,-32.68944 -1.12214,-50.94537 -0.85253,-18.1208 -0.8473,-17.83888 -0.34252,-18.35066 0.40157,-0.4071 2.50078,-0.48635 17.01172,-0.64221 9.10451,-0.0977 19.40522,-0.32102 22.8905,-0.49611 6.78517,-0.3409 7.35085,-0.26684 7.66531,1.0034 0.0946,0.38184 0.0307,2.20537 -0.14178,4.05235 -0.80907,8.66213 -1.90692,30.25545 -4.24648,83.52461 -0.87352,19.88879 -1.52269,36.22784 -1.44267,36.30901 0.0801,0.0811 13.87385,-0.74656 30.65292,-1.83934 16.77905,-1.09285 31.04419,-1.98211 31.70028,-1.97625 1.42193,0.0125 2.25738,0.77959 2.22201,2.03977 -0.0131,0.46726 -0.15908,3.95631 -0.32443,7.75347 -0.16533,3.79715 -0.38599,10.71776 -0.49036,15.37916 -0.17597,7.8607 -0.23048,8.51267 -0.75195,8.99112 -0.52246,0.47933 -3.907,0.57234 -47.81467,1.31343 -25.98881,0.43871 -49.4809,0.86727 -52.20464,0.95245 -2.72374,0.0852 -5.23863,0.0402 -5.58864,-0.0998 z m 44.60488,-34.93392 c -0.0806,-0.21287 0.58142,-16.9252 1.47113,-37.13843 2.52566,-57.37983 3.47468,-75.22299 4.03103,-75.79024 0.22701,-0.23144 2.32892,-0.42047 6.20858,-0.55844 l 5.86541,-0.20852 0.45347,0.70614 c 0.37376,0.58207 0.40752,1.09522 0.19219,2.92112 -0.64475,5.467 -1.78919,26.54586 -3.34324,61.57745 -0.56205,12.66993 -1.26827,28.59529 -1.56942,35.3898 -0.30113,6.79443 -0.66171,12.46028 -0.80125,12.59068 -0.24338,0.22741 -8.54569,0.89761 -11.11986,0.89761 -0.75518,0 -1.2989,-0.15165 -1.38804,-0.38717 z"
       style="fill:#dadda7;stroke-width:0.29331541"
       sodipodi:nodetypes="cccccccccccccccccccccccscccccsccccccccsccscccccsccsc" />
    <path
       inkscape:connector-curvature="0"
       id="path1478"
       d="m 663.19311,488.52734 c -0.49219,-0.55929 -0.53244,-0.9304 -0.36313,-3.34871 0.10472,-1.49587 0.28828,-2.81653 0.40787,-2.93488 0.11961,-0.11828 20.66735,-0.56455 45.66166,-0.99174 50.53089,-0.86353 46.8172,-0.64532 47.96647,-2.81786 0.47107,-0.89051 0.53657,-1.75291 0.53729,-7.07319 0,-9.42548 0.32659,-17.12846 0.74106,-17.54867 0.22743,-0.23058 2.34225,-0.49183 5.83626,-0.72109 l 5.47961,-0.35958 0.6983,0.70798 0.69829,0.70791 -0.32696,4.69123 c -0.17985,2.58017 -0.41008,9.73603 -0.51165,15.90187 -0.18406,11.17411 -0.18681,11.21281 -0.85209,11.88723 -0.58803,0.59622 -0.95478,0.67685 -3.08393,0.6785 -3.7057,0 -85.24187,1.43301 -94.32454,1.65457 -7.92566,0.19332 -8.01689,0.18871 -8.56451,-0.43357 z m -14.06571,-8.31822 c -1.26242,-0.50518 -1.3023,-1.00951 -0.68166,-8.62074 2.10881,-25.86249 3.01021,-49.33075 3.0092,-78.3483 0,-20.76883 -0.26324,-32.68944 -1.12214,-50.94537 -0.85253,-18.1208 -0.8473,-17.83888 -0.34252,-18.35066 0.40157,-0.4071 2.50078,-0.48635 17.01172,-0.64221 9.10451,-0.0977 19.40522,-0.32102 22.8905,-0.49611 6.78517,-0.3409 7.35085,-0.26684 7.66531,1.0034 0.0946,0.38184 0.0307,2.20537 -0.14178,4.05235 -0.80907,8.66213 -1.90692,30.25545 -4.24648,83.52461 -0.87352,19.88879 -1.52269,36.22784 -1.44267,36.30901 0.0801,0.0811 13.87385,-0.74656 30.65292,-1.83934 16.77905,-1.09285 31.04419,-1.98211 31.70028,-1.97625 1.42193,0.0125 2.25738,0.77959 2.22201,2.03977 -0.0131,0.46726 -0.15908,3.95631 -0.32443,7.75347 -0.16533,3.79715 -0.38599,10.71776 -0.49036,15.37916 -0.17597,7.8607 -0.23048,8.51267 -0.75195,8.99112 -0.52246,0.47933 -3.907,0.57234 -47.81467,1.31343 -25.98881,0.43871 -49.4809,0.86727 -52.20464,0.95245 -2.72374,0.0852 -5.23863,0.0402 -5.58864,-0.0998 z m 44.60488,-34.93392 c -0.0806,-0.21287 0.58142,-16.9252 1.47113,-37.13843 2.52566,-57.37983 3.47468,-75.22299 4.03103,-75.79024 0.22701,-0.23144 2.32892,-0.42047 6.20858,-0.55844 l 5.86541,-0.20852 0.45347,0.70614 c 0.37376,0.58207 0.40752,1.09522 0.19219,2.92112 -0.64475,5.467 -1.78919,26.54586 -3.34324,61.57745 -0.56205,12.66993 -1.26827,28.59529 -1.56942,35.3898 -0.30113,6.79443 -0.66171,12.46028 -0.80125,12.59068 -0.24338,0.22741 -8.54569,0.89761 -11.11986,0.89761 -0.75518,0 -1.2989,-0.15165 -1.38804,-0.38717 z"
       style="fill:#cca2ca;stroke-width:0.29331541"
       sodipodi:nodetypes="ccccccccccccccccccccscccccsccccccccsccscccccsccsc" />
    <path
       inkscape:connector-curvature="0"
       id="path1480"
       d="m 663.49199,488.23628 c -0.49165,-0.55502 -0.52063,-0.87426 -0.29132,-3.21055 l 0.25464,-2.59426 3.20441,-0.0758 c 1.76241,-0.0414 22.26042,-0.40402 45.5511,-0.80514 39.74118,-0.68449 42.40282,-0.76261 43.2584,-1.26919 0.50143,-0.29691 1.20707,-0.98423 1.5681,-1.52733 0.62295,-0.93718 0.65779,-1.28295 0.68298,-6.7768 0.0373,-8.13102 0.37544,-17.66557 0.6359,-17.92965 0.27086,-0.27461 10.63208,-1.00932 11.18734,-0.79329 0.8208,0.31931 0.93077,1.16439 0.65837,5.05916 -0.15,2.14476 -0.39325,9.2951 -0.54056,15.88969 -0.18256,8.17184 -0.37256,12.09656 -0.5966,12.3243 -0.39653,0.40296 3.22074,0.31661 -50.98901,1.21738 -24.11309,0.40066 -46.13606,0.81383 -48.9399,0.91816 -4.92152,0.18311 -5.11678,0.1683 -5.64385,-0.42666 z m -14.75527,-8.61812 c -0.59981,-0.60806 -0.63767,-0.84297 -0.4695,-2.91111 1.63952,-20.16122 2.51755,-35.79777 3.12799,-55.70538 0.38347,-12.50577 0.1892,-56.03343 -0.30056,-67.33656 -0.5965,-13.76719 -1.18764,-25.71221 -1.34577,-27.19368 -0.12538,-1.17446 -0.0464,-1.64153 0.36439,-2.15507 l 0.52445,-0.65566 15.00241,-0.10268 c 8.25132,-0.0566 18.39212,-0.26046 22.53508,-0.45319 4.14293,-0.19266 7.84422,-0.27106 8.22503,-0.17417 0.40433,0.10288 0.76459,0.46787 0.86596,0.87728 0.0955,0.38565 -0.0334,3.40709 -0.28623,6.71446 -1.20935,15.81524 -5.8673,116.80844 -5.41049,117.30934 0.12532,0.13737 14.36634,-0.67908 31.64671,-1.81452 20.05671,-1.31776 31.60078,-1.96644 31.92196,-1.79359 0.99961,0.53797 1.09881,1.23134 0.78221,5.4693 -0.16809,2.25007 -0.39495,9.3856 -0.50417,15.85678 l -0.19855,11.7658 -0.68772,0.56443 c -0.59262,0.48642 -1.17677,0.56455 -4.22399,0.56474 -5.61195,3.4e-4 -87.93895,1.42611 -94.75762,1.64096 -6.11269,0.1926 -6.16404,0.18904 -6.81159,-0.46748 z m 45.37424,-34.43478 c -0.0876,-0.14375 0.54541,-16.2756 1.40678,-35.84844 2.54182,-57.75607 3.50622,-76.16735 4.01656,-76.67845 0.21062,-0.21097 2.39401,-0.40923 5.89184,-0.53495 4.90657,-0.17639 5.60272,-0.1442 5.94612,0.27527 0.31942,0.3902 0.32851,1.1985 0.0509,4.52206 -0.83966,10.05224 -1.83076,29.36726 -3.82634,74.56983 -0.79449,17.99601 -1.51003,32.82755 -1.59011,32.95886 -0.0801,0.13138 -1.75601,0.32812 -3.72431,0.43726 -1.96828,0.10913 -4.5762,0.2798 -5.79537,0.37926 -1.21916,0.0994 -2.28839,0.0631 -2.37606,-0.0807 z"
       style="fill:#f07aa8;stroke-width:0.29331541"
       sodipodi:nodetypes="ccccccccccsccsccccsscccccccccccsscccsccsccccscsccc" />
    <path
       inkscape:connector-curvature="0"
       id="path1482"
       d="m 649.3432,479.07072 c -0.36583,-0.25131 -0.35491,-1.14741 0.0839,-6.88112 2.07664,-27.13246 2.78013,-43.65345 3.00962,-70.68007 0.2091,-24.62141 -0.3597,-48.84696 -1.66996,-71.12438 -0.21856,-3.71605 -0.21859,-5.37569 -1.4e-4,-5.6426 0.24242,-0.29614 2.94542,-0.37835 12.47092,-0.37933 6.68876,-6e-4 16.86061,-0.17285 22.60411,-0.38262 8.9304,-0.32609 10.47984,-0.32141 10.69896,0.0322 0.14095,0.22762 0.19955,0.61314 0.13028,0.85682 -0.55914,1.96663 -1.97755,29.02451 -4.37614,83.47906 -1.70437,38.69441 -1.75189,40.13789 -1.33046,40.40196 0.14944,0.0936 14.52789,-0.76629 31.95218,-1.91095 25.73121,-1.69037 31.75022,-2.0102 32.05187,-1.70327 0.29328,0.29843 0.31433,1.40241 0.10007,5.2509 -0.14926,2.68015 -0.36187,9.75881 -0.47254,15.73027 -0.13721,7.40289 -0.30471,10.94433 -0.52654,11.131 -0.18781,0.15797 -19.03968,0.58938 -44.59579,1.02038 -24.34876,0.41072 -47.74429,0.82402 -51.99013,0.91855 -4.84265,0.10781 -7.87643,0.0639 -8.14028,-0.11704 z"
       style="fill:#f5921d;stroke-width:0.29331541"
       sodipodi:nodetypes="cscccccccsccccsccccc" />
    <path
       inkscape:connector-curvature="0"
       id="path1484"
       d="m 649.3432,479.07072 c -0.36583,-0.25131 -0.35491,-1.14741 0.0839,-6.88112 2.07664,-27.13246 2.78013,-43.65345 3.00962,-70.68007 0.2091,-24.62141 -0.3597,-48.84696 -1.66996,-71.12438 -0.21856,-3.71605 -0.21859,-5.37569 -1.4e-4,-5.6426 0.24242,-0.29614 2.94542,-0.37835 12.47092,-0.37933 6.68876,-6e-4 16.86061,-0.17285 22.60411,-0.38262 8.9304,-0.32609 10.47984,-0.32141 10.69896,0.0322 0.14095,0.22762 0.19955,0.61314 0.13028,0.85682 -0.55914,1.96663 -1.97755,29.02451 -4.37614,83.47906 -1.70437,38.69441 -1.75189,40.13789 -1.33046,40.40196 0.14944,0.0936 14.52789,-0.76629 31.95218,-1.91095 25.73121,-1.69037 31.75022,-2.0102 32.05187,-1.70327 0.29328,0.29843 0.31433,1.40241 0.10007,5.2509 -0.14926,2.68015 -0.36187,9.75881 -0.47254,15.73027 -0.13721,7.40289 -0.30471,10.94433 -0.52654,11.131 -0.18781,0.15797 -19.03968,0.58938 -44.59579,1.02038 -24.34876,0.41072 -47.74429,0.82402 -51.99013,0.91855 -4.84265,0.10781 -7.87643,0.0639 -8.14028,-0.11704 z"
       style="fill:#8ac33e;stroke-width:0.29331541"
       sodipodi:nodetypes="cscccccccsccccsccccc" />
    <path
       inkscape:connector-curvature="0"
       id="path1486"
       d="m 649.3432,479.07072 c -0.36583,-0.25131 -0.35491,-1.14741 0.0839,-6.88112 2.07664,-27.13246 2.78013,-43.65345 3.00962,-70.68007 0.2091,-24.62141 -0.3597,-48.84696 -1.66996,-71.12438 -0.21856,-3.71605 -0.21859,-5.37569 -1.4e-4,-5.6426 0.24242,-0.29614 2.94542,-0.37835 12.47092,-0.37933 6.68876,-6e-4 16.86061,-0.17285 22.60411,-0.38262 8.9304,-0.32609 10.47984,-0.32141 10.69896,0.0322 0.14095,0.22762 0.19955,0.61314 0.13028,0.85682 -0.55914,1.96663 -1.97755,29.02451 -4.37614,83.47906 -1.70437,38.69441 -1.75189,40.13789 -1.33046,40.40196 0.14944,0.0936 14.52789,-0.76629 31.95218,-1.91095 25.73121,-1.69037 31.75022,-2.0102 32.05187,-1.70327 0.29328,0.29843 0.31433,1.40241 0.10007,5.2509 -0.14926,2.68015 -0.36187,9.75881 -0.47254,15.73027 -0.13721,7.40289 -0.30471,10.94433 -0.52654,11.131 -0.18781,0.15797 -19.03968,0.58938 -44.59579,1.02038 -24.34876,0.41072 -47.74429,0.82402 -51.99013,0.91855 -4.84265,0.10781 -7.87643,0.0639 -8.14028,-0.11704 z"
       style="fill:#8f268d;stroke-width:0.29331541"
       sodipodi:nodetypes="cscccccccsccccsccccc" />
    <path
       style="fill:#aed2ee;stroke-width:0.29331541"
       d="m 1001.4846,495.67425 c -3.19775,-0.34175 -6.55875,-1.06737 -9.58895,-2.07023 -2.9675,-0.98213 -8.0206,-3.52998 -8.8237,-4.44906 l -0.5485,-0.62762 1.4566,0.2036 c 6.0108,0.84028 12.8362,0.89557 18.49805,0.14986 16.6209,-2.18924 30.0199,-10.01446 39.8759,-23.28804 9.1536,-12.32792 14.3499,-26.65162 16.3971,-45.19955 0.5784,-5.23966 0.4851,-20.16472 -0.156,-24.95585 -1.4449,-10.79933 -4.3962,-19.52077 -8.9321,-26.39584 -0.991,-1.50213 -1.727,-2.80713 -1.6352,-2.90007 0.2718,-0.27573 3.937,2.08282 6.5497,4.215 6.3099,5.14915 11.4538,13.5341 14.1182,23.01356 2.3256,8.27412 3.3726,19.03574 2.8143,28.92467 -0.9012,15.95814 -3.7551,27.99611 -9.2817,39.15016 -9.1002,18.36606 -22.8489,29.60619 -40.6268,33.21397 -6.1945,1.25708 -14.1152,1.65688 -20.1169,1.01544 z m -14.73715,-8.56715 c -19.4092,-2.22703 -31.13809,-14.32128 -34.7949,-35.87886 -0.64241,-3.78689 -1.32423,-12.05226 -1.32604,-16.07328 0,-6.71775 0.95316,-18.21399 2.06202,-24.79623 1.79747,-10.66939 4.35022,-18.89144 8.57579,-27.62078 3.67389,-7.58984 7.43483,-12.90413 12.82363,-18.12015 5.0433,-4.88177 10.8385,-8.40313 17.603,-10.69606 10.38315,-3.51957 24.60545,-3.49167 35.25705,0.0691 10.7899,3.60699 19.0655,11.02174 24.1504,21.63782 5.5454,11.57807 7.4996,27.70176 5.5508,45.7982 -1.2859,11.94049 -4.8028,24.10174 -9.5228,32.92995 -10.6259,19.87398 -26.1264,30.723 -46.8109,32.76362 -3.65195,0.36032 -10.36915,0.35367 -13.56805,-0.0131 z m 18.48025,-35.10835 c 13.1819,-3.41801 21.507,-21.42375 20.7575,-44.89565 -0.5909,-18.51139 -6.9206,-27.45597 -19.4289,-27.45597 -8.21365,0 -14.13575,4.1337 -18.45295,12.88042 -2.3976,4.85782 -4.5291,12.9225 -5.4913,20.77759 -0.2328,1.8993 -0.3789,6.36284 -0.3771,11.51811 0,8.84531 0.2078,10.83224 1.6174,15.69031 1.437,4.95213 4.5041,9.07492 7.9834,10.73107 3.5582,1.69374 8.66005,1.98105 13.39195,0.75412 z m -9.91795,-1.60231 c -5.4796,-1.34837 -8.9364,-6.02708 -10.4568,-14.15309 -1.1398,-6.09153 -1.1299,-16.98709 0.023,-25.00555 1.866,-12.98016 5.9952,-22.30638 11.7271,-26.48734 3.0768,-2.24421 4.75225,-2.80884 8.83505,-2.97714 4.2508,-0.17522 6.9377,0.36821 9.541,1.92944 1.8954,1.13682 4.1035,3.295 4.1035,4.01081 0,0.26843 -0.6274,0.5364 -1.8075,0.77171 -11.7102,2.3357 -18.76535,14.93631 -20.64615,36.87455 -0.6828,7.96396 -0.07,18.85176 1.3245,23.55081 0.2306,0.77676 0.352,1.52253 0.2699,1.6572 -0.1988,0.32622 -1.109,0.27263 -2.9136,-0.1714 z"
       id="path1488"
       inkscape:connector-curvature="0"
       sodipodi:nodetypes="ccccccccsccccccccccccccscccccccccsssccccccssccscscccc" />
    <path
       style="fill:#dadda7;stroke-width:0.29331541"
       d="m 1001.4846,495.67425 c -3.19775,-0.34175 -6.55875,-1.06737 -9.58895,-2.07023 -2.9675,-0.98213 -8.0206,-3.52998 -8.8237,-4.44906 l -0.5485,-0.62762 1.4566,0.2036 c 6.0108,0.84028 12.8362,0.89557 18.49805,0.14986 16.6209,-2.18924 30.0199,-10.01446 39.8759,-23.28804 9.1536,-12.32792 14.3499,-26.65162 16.3971,-45.19955 0.5784,-5.23966 0.4851,-20.16472 -0.156,-24.95585 -1.4449,-10.79933 -4.3962,-19.52077 -8.9321,-26.39584 -0.991,-1.50213 -1.727,-2.80713 -1.6352,-2.90007 0.2718,-0.27573 3.937,2.08282 6.5497,4.215 6.3099,5.14915 11.4538,13.5341 14.1182,23.01356 2.3256,8.27412 3.3726,19.03574 2.8143,28.92467 -0.9012,15.95814 -3.7551,27.99611 -9.2817,39.15016 -9.1002,18.36606 -22.8489,29.60619 -40.6268,33.21397 -6.1945,1.25708 -14.1152,1.65688 -20.1169,1.01544 z m -14.73715,-8.56715 c -19.4092,-2.22703 -31.13809,-14.32128 -34.7949,-35.87886 -0.64241,-3.78689 -1.32423,-12.05226 -1.32604,-16.07328 0,-6.71775 0.95316,-18.21399 2.06202,-24.79623 1.79747,-10.66939 4.35022,-18.89144 8.57579,-27.62078 3.67389,-7.58984 7.43483,-12.90413 12.82363,-18.12015 5.0433,-4.88177 10.8385,-8.40313 17.603,-10.69606 10.38315,-3.51957 24.60545,-3.49167 35.25705,0.0691 10.7899,3.60699 19.0655,11.02174 24.1504,21.63782 5.5454,11.57807 7.4996,27.70176 5.5508,45.7982 -1.2859,11.94049 -4.8028,24.10174 -9.5228,32.92995 -10.6259,19.87398 -26.1264,30.723 -46.8109,32.76362 -3.65195,0.36032 -10.36915,0.35367 -13.56805,-0.0131 z m 18.48025,-35.10835 c 13.1819,-3.41801 21.507,-21.42375 20.7575,-44.89565 -0.5909,-18.51139 -6.9206,-27.45597 -19.4289,-27.45597 -8.21365,0 -14.13575,4.1337 -18.45295,12.88042 -2.3976,4.85782 -4.5291,12.9225 -5.4913,20.77759 -0.2328,1.8993 -0.3789,6.36284 -0.3771,11.51811 0,8.84531 0.2078,10.83224 1.6174,15.69031 1.437,4.95213 4.5041,9.07492 7.9834,10.73107 3.5582,1.69374 8.66005,1.98105 13.39195,0.75412 z m -9.91795,-1.60231 c -5.4796,-1.34837 -8.9364,-6.02708 -10.4568,-14.15309 -1.1398,-6.09153 -1.1299,-16.98709 0.023,-25.00555 1.866,-12.98016 5.9952,-22.30638 11.7271,-26.48734 3.0768,-2.24421 4.75225,-2.80884 8.83505,-2.97714 4.2508,-0.17522 6.9377,0.36821 9.541,1.92944 1.8954,1.13682 4.1035,3.295 4.1035,4.01081 0,0.26843 -0.6274,0.5364 -1.8075,0.77171 -11.7102,2.3357 -18.76535,14.93631 -20.64615,36.87455 -0.6828,7.96396 -0.07,18.85176 1.3245,23.55081 0.2306,0.77676 0.352,1.52253 0.2699,1.6572 -0.1988,0.32622 -1.109,0.27263 -2.9136,-0.1714 z"
       id="path1490"
       inkscape:connector-curvature="0"
       sodipodi:nodetypes="ccccccccsccccccccccccccscccccccccsssccccccssccscscccc" />
    <path
       style="fill:#cca2ca;stroke-width:0.29331541"
       d="m 987.03865,486.64035 c -2.3734,-0.25336 -7.4149,-1.34054 -9.5242,-2.05378 -7.213,-2.43911 -13.20356,-6.87343 -17.38682,-12.86991 -6.27976,-9.00185 -9.27827,-22.63745 -8.81818,-40.10069 0.4189,-15.89687 2.61369,-28.79921 6.90786,-40.60864 1.63676,-4.50112 5.37005,-12.09373 7.76915,-15.80044 8.60299,-13.29201 20.24369,-20.91088 34.98984,-22.90107 4.1104,-0.55475 11.9764,-0.54351 16.2707,0.023 20.4392,2.69758 33.3826,15.37337 37.836,37.05391 1.2743,6.20335 1.7048,11.05353 1.6907,19.04909 -0.032,18.83439 -3.7714,34.62257 -11.3643,47.99206 -10.0839,17.75608 -24.3197,27.57242 -43.5029,29.99744 -3.01655,0.38137 -12.09365,0.51493 -14.86785,0.21873 z m 17.94165,-34.05532 c 7.8077,-2.00067 13.4829,-7.95304 17.5993,-18.45874 1.3051,-3.33047 2.7725,-9.37222 3.3716,-13.88072 0.7078,-5.32687 0.7205,-15.87758 0.025,-20.45638 -1.6739,-11.01278 -5.8837,-17.35495 -13.1104,-19.75016 -2.0911,-0.69304 -2.8487,-0.78848 -6.309,-0.79493 -3.4894,-0.006 -4.1979,0.0815 -6.286,0.78025 -3.11295,1.04177 -5.33485,2.54845 -7.98805,5.41672 -5.3065,5.73634 -8.6172,14.97469 -10.2501,28.60239 -0.1946,1.62437 -0.3566,6.47527 -0.3599,10.77979 -0.01,8.69735 0.3202,11.50414 1.9098,16.39112 2.0234,6.22066 5.6713,10.10102 10.8163,11.5058 2.3657,0.6459 7.80485,0.57647 10.58185,-0.13514 z"
       id="path1492"
       inkscape:connector-curvature="0"
       sodipodi:nodetypes="cccssccccccccccccccccscccscc" />
    <path
       style="fill:#f07aa8;stroke-width:0.29331541"
       d="m 987.03865,486.64035 c -2.3734,-0.25336 -7.4149,-1.34054 -9.5242,-2.05378 -7.213,-2.43911 -13.20356,-6.87343 -17.38682,-12.86991 -6.27976,-9.00185 -9.27827,-22.63745 -8.81818,-40.10069 0.4189,-15.89687 2.61369,-28.79921 6.90786,-40.60864 1.63676,-4.50112 5.37005,-12.09373 7.76915,-15.80044 8.60299,-13.29201 20.24369,-20.91088 34.98984,-22.90107 4.1104,-0.55475 11.9764,-0.54351 16.2707,0.023 20.4392,2.69758 33.3826,15.37337 37.836,37.05391 1.2743,6.20335 1.7048,11.05353 1.6907,19.04909 -0.032,18.83439 -3.7714,34.62257 -11.3643,47.99206 -10.0839,17.75608 -24.3197,27.57242 -43.5029,29.99744 -3.01655,0.38137 -12.09365,0.51493 -14.86785,0.21873 z m 17.94165,-34.05532 c 7.8077,-2.00067 13.4829,-7.95304 17.5993,-18.45874 1.3051,-3.33047 2.7725,-9.37222 3.3716,-13.88072 0.7078,-5.32687 0.7205,-15.87758 0.025,-20.45638 -1.6739,-11.01278 -5.8837,-17.35495 -13.1104,-19.75016 -2.0911,-0.69304 -2.8487,-0.78848 -6.309,-0.79493 -3.4894,-0.006 -4.1979,0.0815 -6.286,0.78025 -3.11295,1.04177 -5.33485,2.54845 -7.98805,5.41672 -5.3065,5.73634 -8.6172,14.97469 -10.2501,28.60239 -0.1946,1.62437 -0.3566,6.47527 -0.3599,10.77979 -0.01,8.69735 0.3202,11.50414 1.9098,16.39112 2.0234,6.22066 5.6713,10.10102 10.8163,11.5058 2.3657,0.6459 7.80485,0.57647 10.58185,-0.13514 z"
       id="path1494"
       inkscape:connector-curvature="0"
       sodipodi:nodetypes="cccssccccccccccccccccscccscc" />
    <path
       style="fill:#f5921d;stroke-width:0.29331541"
       d="m 987.03865,486.64035 c -2.3734,-0.25336 -7.4149,-1.34054 -9.5242,-2.05378 -7.213,-2.43911 -13.20356,-6.87343 -17.38682,-12.86991 -6.27976,-9.00185 -9.27827,-22.63745 -8.81818,-40.10069 0.4189,-15.89687 2.61369,-28.79921 6.90786,-40.60864 1.63676,-4.50112 5.37005,-12.09373 7.76915,-15.80044 8.60299,-13.29201 20.24369,-20.91088 34.98984,-22.90107 4.1104,-0.55475 11.9764,-0.54351 16.2707,0.023 20.4392,2.69758 33.3826,15.37337 37.836,37.05391 1.2743,6.20335 1.7048,11.05353 1.6907,19.04909 -0.032,18.83439 -3.7714,34.62257 -11.3643,47.99206 -10.0839,17.75608 -24.3197,27.57242 -43.5029,29.99744 -3.01655,0.38137 -12.09365,0.51493 -14.86785,0.21873 z m 17.94165,-34.05532 c 7.8077,-2.00067 13.4829,-7.95304 17.5993,-18.45874 1.3051,-3.33047 2.7725,-9.37222 3.3716,-13.88072 0.7078,-5.32687 0.7205,-15.87758 0.025,-20.45638 -1.6739,-11.01278 -5.8837,-17.35495 -13.1104,-19.75016 -2.0911,-0.69304 -2.8487,-0.78848 -6.309,-0.79493 -3.4894,-0.006 -4.1979,0.0815 -6.286,0.78025 -3.11295,1.04177 -5.33485,2.54845 -7.98805,5.41672 -5.3065,5.73634 -8.6172,14.97469 -10.2501,28.60239 -0.1946,1.62437 -0.3566,6.47527 -0.3599,10.77979 -0.01,8.69735 0.3202,11.50414 1.9098,16.39112 2.0234,6.22066 5.6713,10.10102 10.8163,11.5058 2.3657,0.6459 7.80485,0.57647 10.58185,-0.13514 z"
       id="path1496"
       inkscape:connector-curvature="0"
       sodipodi:nodetypes="cccssccccccccccccccccscccscc" />
    <path
       style="fill:#8ac33e;stroke-width:0.29331541"
       d="m 987.03865,486.64035 c -2.3734,-0.25336 -7.4149,-1.34054 -9.5242,-2.05378 -7.213,-2.43911 -13.20356,-6.87343 -17.38682,-12.86991 -6.27976,-9.00185 -9.27827,-22.63745 -8.81818,-40.10069 0.4189,-15.89687 2.61369,-28.79921 6.90786,-40.60864 1.63676,-4.50112 5.37005,-12.09373 7.76915,-15.80044 8.60299,-13.29201 20.24369,-20.91088 34.98984,-22.90107 4.1104,-0.55475 11.9764,-0.54351 16.2707,0.023 20.4392,2.69758 33.3826,15.37337 37.836,37.05391 1.2743,6.20335 1.7048,11.05353 1.6907,19.04909 -0.032,18.83439 -3.7714,34.62257 -11.3643,47.99206 -10.0839,17.75608 -24.3197,27.57242 -43.5029,29.99744 -3.01655,0.38137 -12.09365,0.51493 -14.86785,0.21873 z m 17.94165,-34.05532 c 7.8077,-2.00067 13.4829,-7.95304 17.5993,-18.45874 1.3051,-3.33047 2.7725,-9.37222 3.3716,-13.88072 0.7078,-5.32687 0.7205,-15.87758 0.025,-20.45638 -1.6739,-11.01278 -5.8837,-17.35495 -13.1104,-19.75016 -2.0911,-0.69304 -2.8487,-0.78848 -6.309,-0.79493 -3.4894,-0.006 -4.1979,0.0815 -6.286,0.78025 -3.11295,1.04177 -5.33485,2.54845 -7.98805,5.41672 -5.3065,5.73634 -8.6172,14.97469 -10.2501,28.60239 -0.1946,1.62437 -0.3566,6.47527 -0.3599,10.77979 -0.01,8.69735 0.3202,11.50414 1.9098,16.39112 2.0234,6.22066 5.6713,10.10102 10.8163,11.5058 2.3657,0.6459 7.80485,0.57647 10.58185,-0.13514 z"
       id="path1498"
       inkscape:connector-curvature="0"
       sodipodi:nodetypes="cccssccccccccccccccccscccscc" />
    <path
       sodipodi:nodetypes="cccsccccccccccccccccscccccsccccccccsccscccccsccsc"
       style="fill:#aed2ee;stroke-width:0.29331541"
       d="m 809.55574,488.52734 c -0.49219,-0.55929 -0.53241,-0.9304 -0.3631,-3.34871 0.10472,-1.49587 0.28828,-2.81653 0.40785,-2.93488 0.11962,-0.11834 20.66736,-0.56462 45.66166,-0.99174 50.53092,-0.86353 46.8172,-0.64532 47.96649,-2.81792 0.47109,-0.89051 0.53658,-1.75285 0.53728,-7.07313 0,-9.42548 0.3266,-17.12846 0.74112,-17.54867 0.22739,-0.23058 2.34219,-0.49189 5.83624,-0.72115 l 5.4796,-0.35952 0.69829,0.70798 0.69829,0.70791 -0.32696,4.69123 c -0.17983,2.58017 -0.41004,9.73603 -0.51168,15.90187 -0.18403,11.17411 -0.18679,11.21275 -0.85202,11.88723 -0.58809,0.59616 -0.9548,0.67685 -3.08401,0.67843 -3.70566,0 -85.24187,1.43308 -94.32453,1.65464 -7.92567,0.19332 -8.01688,0.18871 -8.56452,-0.43357 z m -14.0657,-8.31822 c -1.26241,-0.50518 -1.3023,-1.00951 -0.68166,-8.62074 2.10881,-25.86249 3.01021,-49.33075 3.00922,-78.3483 0,-20.76883 -0.26325,-32.68944 -1.12215,-50.94537 -0.85255,-18.12082 -0.84731,-17.8389 -0.34252,-18.35066 0.40157,-0.40712 2.50077,-0.48637 17.0117,-0.64223 9.10452,-0.0977 19.40524,-0.32102 22.89051,-0.4961 6.78517,-0.34091 7.35084,-0.26685 7.66531,1.00338 0.0946,0.38185 0.0307,2.20537 -0.14179,4.05236 -0.80907,8.66215 -1.9069,30.25547 -4.24646,83.52463 -0.87352,19.88879 -1.5227,36.22784 -1.44269,36.30901 0.0801,0.0811 13.87386,-0.74656 30.65294,-1.83934 16.77909,-1.09285 31.04425,-1.98211 31.70031,-1.97625 1.42192,0.0125 2.25738,0.77959 2.22201,2.03977 -0.013,0.46726 -0.15905,3.95631 -0.32446,7.75347 -0.16533,3.79715 -0.38594,10.71776 -0.49032,15.37916 -0.17597,7.8607 -0.23047,8.51267 -0.75194,8.99112 -0.5225,0.47933 -3.90703,0.57234 -47.81472,1.31343 -25.98882,0.43871 -49.48089,0.86727 -52.20464,0.95245 -2.72374,0.0852 -5.23864,0.0402 -5.58865,-0.0998 z m 44.60487,-34.93405 c -0.0806,-0.21293 0.58143,-16.9252 1.47116,-37.13849 2.52564,-57.37983 3.47466,-75.22293 4.03101,-75.79019 0.22702,-0.23149 2.32893,-0.42053 6.20857,-0.55843 l 5.86543,-0.20859 0.45345,0.70615 c 0.37378,0.58206 0.40754,1.09528 0.1922,2.92112 -0.64474,5.467 -1.78919,26.54584 -3.34323,61.5775 -0.56206,12.66987 -1.26828,28.5953 -1.56944,35.38974 -0.30111,6.7945 -0.66169,12.46029 -0.80124,12.59074 -0.24339,0.22742 -8.5457,0.89756 -11.11987,0.89756 -0.75516,0 -1.29888,-0.15165 -1.38804,-0.38711 z"
       id="path1504"
       inkscape:connector-curvature="0" />
    <path
       sodipodi:nodetypes="cccccccccccccccccccccccscccccsccccccccsccscccccsccsc"
       style="fill:#dadda7;stroke-width:0.29331541"
       d="m 790.84133,477.78073 c -0.14941,6.72474 -0.27948,8.71296 -0.58687,8.97158 -1.12343,2.86768 -0.10162,-11.91896 0.58687,-8.97158 z m 18.71441,10.74661 c -0.49219,-0.55929 -0.53241,-0.9304 -0.3631,-3.34871 0.10472,-1.49587 0.28828,-2.81653 0.40785,-2.93488 0.11962,-0.11828 20.66736,-0.56455 45.66166,-0.99174 50.53092,-0.86353 46.8172,-0.64532 47.96649,-2.81786 0.47109,-0.89051 0.53658,-1.75291 0.53728,-7.07319 0,-9.42548 0.3266,-17.12846 0.74112,-17.54867 0.22739,-0.23058 2.34219,-0.49183 5.83624,-0.72109 l 5.4796,-0.35958 0.69829,0.70798 0.69829,0.70791 -0.32696,4.69123 c -0.17983,2.58017 -0.41004,9.73603 -0.51168,15.90187 -0.18403,11.17411 -0.18679,11.21281 -0.85202,11.88723 -0.58809,0.59622 -0.9548,0.67685 -3.08401,0.6785 -3.70566,0 -85.24187,1.43301 -94.32453,1.65457 -7.92567,0.19332 -8.01688,0.18871 -8.56452,-0.43357 z m -14.0657,-8.31822 c -1.26241,-0.50518 -1.3023,-1.00951 -0.68166,-8.62074 2.10881,-25.86249 3.01021,-49.33075 3.00922,-78.3483 0,-20.76883 -0.26325,-32.68944 -1.12215,-50.94537 -0.85255,-18.12082 -0.84731,-17.8389 -0.34252,-18.35066 0.40157,-0.40712 2.50077,-0.48637 17.0117,-0.64223 9.10452,-0.0977 19.40524,-0.32102 22.89051,-0.4961 6.78517,-0.34091 7.35084,-0.26685 7.66531,1.00338 0.0946,0.38185 0.0307,2.20537 -0.14179,4.05236 -0.80907,8.66215 -1.9069,30.25547 -4.24646,83.52463 -0.87352,19.88879 -1.5227,36.22784 -1.44269,36.30901 0.0801,0.0811 13.87386,-0.74656 30.65294,-1.83934 16.77909,-1.09285 31.04425,-1.98211 31.70031,-1.97625 1.42192,0.0125 2.25738,0.77959 2.22201,2.03977 -0.013,0.46726 -0.15905,3.95631 -0.32446,7.75347 -0.16533,3.79715 -0.38594,10.71776 -0.49032,15.37916 -0.17597,7.8607 -0.23047,8.51267 -0.75194,8.99112 -0.5225,0.47933 -3.90703,0.57234 -47.81472,1.31343 -25.98882,0.43871 -49.48089,0.86727 -52.20464,0.95245 -2.72374,0.0852 -5.23864,0.0402 -5.58865,-0.0998 z m 44.60487,-34.93392 c -0.0806,-0.21287 0.58143,-16.9252 1.47116,-37.13843 2.52564,-57.37983 3.47466,-75.22299 4.03101,-75.79024 0.22702,-0.23144 2.32893,-0.42047 6.20857,-0.55844 l 5.86543,-0.20852 0.45345,0.70614 c 0.37378,0.58207 0.40754,1.09522 0.1922,2.92112 -0.64474,5.467 -1.78919,26.54586 -3.34323,61.57745 -0.56206,12.66993 -1.26828,28.59529 -1.56944,35.3898 -0.30111,6.79443 -0.66169,12.46028 -0.80124,12.59068 -0.24339,0.22741 -8.5457,0.89761 -11.11987,0.89761 -0.75516,0 -1.29888,-0.15165 -1.38804,-0.38717 z"
       id="path1506"
       inkscape:connector-curvature="0" />
    <path
       sodipodi:nodetypes="ccccccccccccccccccccscccccsccccccccsccscccccsccsc"
       style="fill:#cca2ca;stroke-width:0.29331541"
       d="m 809.55574,488.52734 c -0.49219,-0.55929 -0.53241,-0.9304 -0.3631,-3.34871 0.10472,-1.49587 0.28828,-2.81653 0.40785,-2.93488 0.11962,-0.11828 20.66736,-0.56455 45.66166,-0.99174 50.53092,-0.86353 46.8172,-0.64532 47.96649,-2.81786 0.47109,-0.89051 0.53658,-1.75291 0.53728,-7.07319 0,-9.42548 0.3266,-17.12846 0.74112,-17.54867 0.22739,-0.23058 2.34219,-0.49183 5.83624,-0.72109 l 5.4796,-0.35958 0.69829,0.70798 0.69829,0.70791 -0.32696,4.69123 c -0.17983,2.58017 -0.41004,9.73603 -0.51168,15.90187 -0.18403,11.17411 -0.18679,11.21281 -0.85202,11.88723 -0.58809,0.59622 -0.9548,0.67685 -3.08401,0.6785 -3.70566,0 -85.24187,1.43301 -94.32453,1.65457 -7.92567,0.19332 -8.01688,0.18871 -8.56452,-0.43357 z m -14.0657,-8.31822 c -1.26241,-0.50518 -1.3023,-1.00951 -0.68166,-8.62074 2.10881,-25.86249 3.01021,-49.33075 3.00922,-78.3483 0,-20.76883 -0.26325,-32.68944 -1.12215,-50.94537 -0.85255,-18.12082 -0.84731,-17.8389 -0.34252,-18.35066 0.40157,-0.40712 2.50077,-0.48637 17.0117,-0.64223 9.10452,-0.0977 19.40524,-0.32102 22.89051,-0.4961 6.78517,-0.34091 7.35084,-0.26685 7.66531,1.00338 0.0946,0.38185 0.0307,2.20537 -0.14179,4.05236 -0.80907,8.66215 -1.9069,30.25547 -4.24646,83.52463 -0.87352,19.88879 -1.5227,36.22784 -1.44269,36.30901 0.0801,0.0811 13.87386,-0.74656 30.65294,-1.83934 16.77909,-1.09285 31.04425,-1.98211 31.70031,-1.97625 1.42192,0.0125 2.25738,0.77959 2.22201,2.03977 -0.013,0.46726 -0.15905,3.95631 -0.32446,7.75347 -0.16533,3.79715 -0.38594,10.71776 -0.49032,15.37916 -0.17597,7.8607 -0.23047,8.51267 -0.75194,8.99112 -0.5225,0.47933 -3.90703,0.57234 -47.81472,1.31343 -25.98882,0.43871 -49.48089,0.86727 -52.20464,0.95245 -2.72374,0.0852 -5.23864,0.0402 -5.58865,-0.0998 z m 44.60487,-34.93392 c -0.0806,-0.21287 0.58143,-16.9252 1.47116,-37.13843 2.52564,-57.37983 3.47466,-75.22299 4.03101,-75.79024 0.22702,-0.23144 2.32893,-0.42047 6.20857,-0.55844 l 5.86543,-0.20852 0.45345,0.70614 c 0.37378,0.58207 0.40754,1.09522 0.1922,2.92112 -0.64474,5.467 -1.78919,26.54586 -3.34323,61.57745 -0.56206,12.66993 -1.26828,28.59529 -1.56944,35.3898 -0.30111,6.79443 -0.66169,12.46028 -0.80124,12.59068 -0.24339,0.22741 -8.5457,0.89761 -11.11987,0.89761 -0.75516,0 -1.29888,-0.15165 -1.38804,-0.38717 z"
       id="path1508"
       inkscape:connector-curvature="0" />
    <path
       sodipodi:nodetypes="ccccccccccsccsccccsscccccccccccsscccsccsccccscsccc"
       style="fill:#f07aa8;stroke-width:0.29331541"
       d="m 809.85463,488.23628 c -0.49165,-0.55502 -0.52062,-0.87426 -0.2913,-3.21055 l 0.25462,-2.59426 3.2044,-0.0758 c 1.76243,-0.0414 22.26044,-0.40402 45.55112,-0.80514 39.74119,-0.68449 42.40286,-0.76261 43.25841,-1.26919 0.50147,-0.29691 1.20706,-0.98423 1.5681,-1.52733 0.62292,-0.93718 0.65778,-1.28295 0.68302,-6.7768 0.0369,-8.13102 0.37538,-17.66557 0.6359,-17.92965 0.27081,-0.27461 10.63203,-1.00932 11.18732,-0.79329 0.82079,0.31931 0.93074,1.16439 0.65838,5.05916 -0.15005,2.14476 -0.39331,9.2951 -0.54062,15.88969 -0.18256,8.17184 -0.37252,12.09656 -0.59656,12.3243 -0.39649,0.40296 3.22073,0.31661 -50.98902,1.21738 -24.11312,0.40066 -46.13608,0.81383 -48.93993,0.91816 -4.92152,0.18311 -5.11677,0.1683 -5.64384,-0.42666 z m -14.75526,-8.61812 c -0.59981,-0.60806 -0.63769,-0.84297 -0.46951,-2.91111 1.63952,-20.16122 2.51755,-35.79777 3.12798,-55.70538 0.38349,-12.50577 0.18922,-56.03343 -0.30053,-67.33656 -0.59651,-13.76719 -1.18767,-25.71223 -1.34579,-27.19369 -0.12538,-1.17447 -0.0464,-1.64154 0.3644,-2.15509 l 0.52445,-0.65565 15.0024,-0.10268 c 8.25133,-0.0566 18.39211,-0.26046 22.53508,-0.45319 4.14294,-0.19266 7.84423,-0.27106 8.22502,-0.17416 0.40434,0.10287 0.76461,0.46786 0.86598,0.87727 0.0955,0.38566 -0.0334,3.40709 -0.28624,6.71448 -1.20934,15.81524 -5.86731,116.80844 -5.41048,117.30934 0.12533,0.13737 14.36634,-0.67908 31.64669,-1.81452 20.05669,-1.31776 31.60078,-1.96644 31.92198,-1.79359 0.99959,0.53797 1.09882,1.23134 0.78225,5.4693 -0.16806,2.25007 -0.39494,9.3856 -0.50422,15.85678 l -0.19855,11.7658 -0.68773,0.56443 c -0.59255,0.48642 -1.17675,0.56455 -4.22395,0.56474 -5.61195,3.4e-4 -87.93897,1.42611 -94.75764,1.64096 -6.11269,0.1926 -6.16405,0.18904 -6.81159,-0.46748 z m 45.37422,-34.43478 c -0.0876,-0.14375 0.54543,-16.2756 1.4068,-35.84844 2.54181,-57.75607 3.50622,-76.16735 4.01656,-76.67845 0.21061,-0.21097 2.39401,-0.40923 5.89185,-0.53495 4.90657,-0.17639 5.60271,-0.1442 5.9461,0.27527 0.31943,0.3902 0.32852,1.1985 0.0509,4.52206 -0.83967,10.05224 -1.83076,29.36726 -3.82635,74.56983 -0.79449,17.99601 -1.51002,32.82755 -1.59009,32.95886 -0.0801,0.13138 -1.75602,0.32812 -3.72431,0.43726 -1.96829,0.10913 -4.5762,0.2798 -5.79539,0.37926 -1.21915,0.0994 -2.28838,0.0631 -2.37606,-0.0807 z"
       id="path1510"
       inkscape:connector-curvature="0" />
    <path
       sodipodi:nodetypes="cscccccccsccccsccccc"
       style="fill:#f5921d;stroke-width:0.29331541"
       d="m 795.70583,479.07072 c -0.36582,-0.25131 -0.35489,-1.14741 0.0839,-6.88112 2.07667,-27.13246 2.78014,-43.65345 3.00964,-70.68007 0.2091,-24.62141 -0.35971,-48.84696 -1.66996,-71.12438 -0.21857,-3.71607 -0.21859,-5.37571 -1.5e-4,-5.64262 0.24243,-0.29614 2.94543,-0.37835 12.47091,-0.37933 6.68877,-6e-4 16.86061,-0.17285 22.60411,-0.38262 8.93041,-0.32609 10.47986,-0.32141 10.69898,0.0323 0.14093,0.22762 0.19955,0.61313 0.13026,0.85681 -0.55914,1.96664 -1.97755,29.02454 -4.37612,83.47909 -1.70436,38.69441 -1.75191,40.13789 -1.33047,40.40196 0.14944,0.0936 14.5279,-0.76629 31.95217,-1.91095 25.73124,-1.69038 31.75023,-2.01021 32.05186,-1.70328 0.29331,0.29844 0.31434,1.40241 0.10006,5.25091 -0.14918,2.68014 -0.36181,9.7588 -0.47254,15.73027 -0.13718,7.40289 -0.30472,10.94433 -0.52653,11.131 -0.18781,0.15797 -19.03966,0.58938 -44.5958,1.02037 -24.34874,0.41073 -47.7443,0.82403 -51.99012,0.91855 -4.84266,0.10782 -7.87644,0.0639 -8.14028,-0.11703 z"
       id="path1512"
       inkscape:connector-curvature="0" />
    <path
       sodipodi:nodetypes="cscccccccsccccsccccc"
       style="fill:#8ac33e;stroke-width:0.29331541"
       d="m 795.70583,479.07072 c -0.36582,-0.25131 -0.35489,-1.14741 0.0839,-6.88112 2.07667,-27.13246 2.78014,-43.65345 3.00964,-70.68007 0.2091,-24.62141 -0.35971,-48.84696 -1.66996,-71.12438 -0.21857,-3.71607 -0.21859,-5.37571 -1.5e-4,-5.64262 0.24243,-0.29614 2.94543,-0.37835 12.47091,-0.37933 6.68877,-6e-4 16.86061,-0.17285 22.60411,-0.38262 8.93041,-0.32609 10.47986,-0.32141 10.69898,0.0323 0.14093,0.22762 0.19955,0.61313 0.13026,0.85681 -0.55914,1.96664 -1.97755,29.02454 -4.37612,83.47909 -1.70436,38.69441 -1.75191,40.13789 -1.33047,40.40196 0.14944,0.0936 14.5279,-0.76629 31.95217,-1.91095 25.73124,-1.69038 31.75023,-2.01021 32.05186,-1.70328 0.29331,0.29844 0.31434,1.40241 0.10006,5.25091 -0.14918,2.68014 -0.36181,9.7588 -0.47254,15.73027 -0.13718,7.40289 -0.30472,10.94433 -0.52653,11.131 -0.18781,0.15797 -19.03966,0.58938 -44.5958,1.02037 -24.34874,0.41073 -47.7443,0.82403 -51.99012,0.91855 -4.84266,0.10782 -7.87644,0.0639 -8.14028,-0.11703 z"
       id="path1514"
       inkscape:connector-curvature="0" />
    <path
       sodipodi:nodetypes="cscccccccsccccsccccc"
       style="fill:#8f268d;stroke-width:0.29331541"
       d="m 795.70583,479.07072 c -0.36582,-0.25131 -0.35489,-1.14741 0.0839,-6.88112 2.07667,-27.13246 2.78014,-43.65345 3.00964,-70.68007 0.2091,-24.62141 -0.35971,-48.84696 -1.66996,-71.12438 -0.21857,-3.71607 -0.21859,-5.37571 -1.5e-4,-5.64262 0.24243,-0.29614 2.94543,-0.37835 12.47091,-0.37933 6.68877,-6e-4 16.86061,-0.17285 22.60411,-0.38262 8.93041,-0.32609 10.47986,-0.32141 10.69898,0.0323 0.14093,0.22762 0.19955,0.61313 0.13026,0.85681 -0.55914,1.96664 -1.97755,29.02454 -4.37612,83.47909 -1.70436,38.69441 -1.75191,40.13789 -1.33047,40.40196 0.14944,0.0936 14.5279,-0.76629 31.95217,-1.91095 25.73124,-1.69038 31.75023,-2.01021 32.05186,-1.70328 0.29331,0.29844 0.31434,1.40241 0.10006,5.25091 -0.14918,2.68014 -0.36181,9.7588 -0.47254,15.73027 -0.13718,7.40289 -0.30472,10.94433 -0.52653,11.131 -0.18781,0.15797 -19.03966,0.58938 -44.5958,1.02037 -24.34874,0.41073 -47.7443,0.82403 -51.99012,0.91855 -4.84266,0.10782 -7.87644,0.0639 -8.14028,-0.11703 z"
       id="path1516"
       inkscape:connector-curvature="0" />
  </g>
</svg>
